<svg width="750" height="500" viewBox="0 0 750 500" fill="none" xmlns="http://www.w3.org/2000/svg">
<path d="M720.28 125.93C720.28 125.93 711.92 120.83 702.68 140.71C693.44 160.59 690.07 172 690.07 172C690.07 172 687.58 176.18 684.68 173.61C681.78 171.04 677.68 163.61 672.92 165.13C668.02 166.72 666.59 172.31 667.83 180.4C669.07 188.49 671.12 206.31 671.31 207.92C671.5 209.53 670.66 211.92 668.4 210.44C666.14 208.96 652.94 195.33 646.82 201.98C640.7 208.63 647.82 230.6 648.6 232.98C649.38 235.36 648.89 236.45 647.75 237.1C646.61 237.75 642.61 232.73 638.75 228.99C634.89 225.25 629.64 221.61 626.44 225.74C623.24 229.87 622.76 246.57 639.59 273.05L648.19 284.81L662.76 283.47C693.76 278.71 706.02 267.37 707.02 262.24C708.02 257.11 701.86 255.59 696.48 255.11C691.1 254.63 684.68 254.9 684.42 253.62C684.16 252.34 684.66 251.31 686.97 250.28C689.28 249.25 710.51 240.17 711.5 231.18C712.49 222.19 693.5 221.27 690.93 220.51C688.36 219.75 689.6 217.57 690.93 216.66C692.26 215.75 707.04 205.56 713.93 201.17C720.82 196.78 724 192.05 722 187.31C720 182.74 711.73 184.54 707.88 184.04C704.03 183.54 705.55 178.92 705.55 178.92C705.55 178.92 711.92 168.92 720.8 148.85C729.68 128.78 720.09 125.85 720.09 125.85" fill="#C8D9E7"/>
<path d="M712 143.72C712 143.72 711.95 143.87 711.83 144.15C711.71 144.43 711.53 144.87 711.31 145.4L709.25 150.15C707.45 154.28 704.81 160.24 701.52 167.59C694.94 182.29 685.68 202.51 675.38 224.81C665.08 247.11 655.74 267.33 649.08 282L641.21 299.37L639.07 304.09C638.82 304.61 638.63 305.02 638.5 305.31C638.437 305.45 638.367 305.587 638.29 305.72C638.334 305.573 638.388 305.429 638.45 305.29C638.58 304.99 638.75 304.58 638.97 304.05C639.45 302.94 640.15 301.34 641.03 299.29C642.83 295.16 645.47 289.21 648.76 281.86C655.34 267.16 664.6 246.94 674.9 224.63C685.2 202.32 694.51 182.12 701.17 167.46C704.49 160.15 707.17 154.22 709.04 150.1L711.19 145.38C711.43 144.85 711.62 144.45 711.76 144.15C711.9 143.85 712 143.72 712 143.72Z" fill="#363636"/>
<path d="M678.271 175.77C678.45 176.084 678.588 176.42 678.68 176.77C678.92 177.4 679.23 178.33 679.61 179.48C680.35 181.79 681.301 184.99 682.281 188.55L684.75 197.67C685.05 198.76 685.3 199.67 685.51 200.43C685.632 200.752 685.709 201.088 685.74 201.43C685.561 201.116 685.423 200.78 685.331 200.43C685.091 199.8 684.78 198.87 684.41 197.71C683.69 195.4 682.78 192.18 681.8 188.62L679.271 179.52L678.5 176.77C678.386 176.447 678.309 176.111 678.271 175.77V175.77Z" fill="#363636"/>
<path d="M687.09 201.64C687.09 201.51 693.57 199.26 701.66 196.64C709.75 194.02 716.35 191.95 716.39 192.08C716.43 192.21 709.91 194.46 701.82 197.08C693.73 199.7 687.13 201.77 687.09 201.64Z" fill="#363636"/>
<path d="M669.72 235.18C670.076 235.113 670.438 235.083 670.8 235.09L673.72 234.99C676.18 234.9 679.59 234.77 683.34 234.48C687.09 234.19 690.48 233.85 692.94 233.57L695.84 233.24C696.196 233.173 696.559 233.153 696.92 233.18C696.596 233.297 696.261 233.381 695.92 233.43C695.24 233.56 694.25 233.73 693.03 233.91C690.59 234.28 687.19 234.7 683.43 234.98C679.67 235.26 676.25 235.34 673.77 235.33C672.54 235.33 671.54 235.33 670.85 235.28C670.47 235.298 670.09 235.265 669.72 235.18V235.18Z" fill="#363636"/>
<path d="M656.6 213.54C656.831 213.778 657.033 214.043 657.2 214.33C657.56 214.85 658.08 215.62 658.7 216.58C659.95 218.49 661.64 221.15 663.48 224.1C665.32 227.05 666.97 229.74 668.14 231.7C668.73 232.7 669.19 233.48 669.5 234.04C669.689 234.315 669.84 234.615 669.95 234.93C669.709 234.698 669.504 234.432 669.34 234.14C668.98 233.61 668.47 232.85 667.84 231.89C666.6 229.98 664.91 227.32 663.06 224.36C661.21 221.4 659.57 218.72 658.4 216.76C657.82 215.76 657.4 214.98 657.04 214.43C656.858 214.152 656.71 213.853 656.6 213.54Z" fill="#363636"/>
<path d="M637.5 241.2C637.792 241.505 638.05 241.84 638.27 242.2L640.2 245.08C641.8 247.52 644 250.91 646.4 254.67C648.8 258.43 650.95 261.86 652.48 264.35L654.28 267.35C654.513 267.705 654.713 268.079 654.88 268.47C654.589 268.164 654.331 267.829 654.11 267.47L652.19 264.59C650.58 262.14 648.38 258.75 645.98 254.99C643.58 251.23 641.44 247.8 639.9 245.31C639.18 244.13 638.58 243.13 638.11 242.31C637.868 241.962 637.664 241.59 637.5 241.2V241.2Z" fill="#363636"/>
<path d="M654.65 267.69C655.093 267.589 655.546 267.535 656 267.53L659.7 267.27C662.82 267.05 667.14 266.73 671.89 266.27C676.64 265.81 680.89 265.27 684.04 264.84L687.71 264.35C688.159 264.269 688.614 264.229 689.07 264.23C688.639 264.378 688.193 264.482 687.74 264.54C686.88 264.71 685.63 264.93 684.09 265.18C680.99 265.69 676.7 266.29 671.94 266.77C667.18 267.25 662.85 267.52 659.72 267.65C658.15 267.71 656.89 267.75 656.01 267.75C655.556 267.769 655.101 267.749 654.65 267.69V267.69Z" fill="#363636"/>
<path d="M124.79 224.43C148.12 208.86 153.79 179.43 153.32 152.84C153.23 148.4 153.8 143.74 151.72 139.84C149.64 135.94 144.72 133.18 140.65 134.99C137.3 136.49 135.78 140.3 133.87 143.44C131.294 147.635 127.59 151.021 123.18 153.21C120.3 154.63 116.75 155.47 113.95 153.89C110.11 151.73 109.73 146.44 109.83 142.03L110.37 117.39C110.46 112.98 110.55 108.48 109.22 104.27C107.89 100.06 104.89 96.1398 100.66 94.8998C96.4301 93.6598 91.1401 95.9998 90.1701 100.3C89.7701 102.09 90.1101 103.96 89.9601 105.79C89.8101 107.62 88.9601 109.63 87.1401 110.11C85.3201 110.59 83.5901 109.32 82.2701 108.02C77.7301 103.49 74.6901 97.7198 71.8601 92.0198C69.0301 86.3198 66.2701 80.3898 62.1701 75.4798C58.0701 70.5698 52.3301 66.6298 45.9401 66.1698C39.5501 65.7098 32.6801 69.5198 30.9401 75.6898C29.2001 81.8598 32.8001 88.2398 36.7201 93.3298C42.5572 100.87 49.4515 107.529 57.1901 113.1C58.5901 114.1 60.0901 115.19 60.6101 116.83C61.5301 119.83 58.6701 122.66 55.7101 123.59C52.3601 124.59 48.7101 124.24 45.2701 124.59C41.8301 124.94 37.9801 126.4 36.6101 129.59C34.7201 134.07 38.4601 138.85 42.1701 142C49.6027 148.309 58.0573 153.304 67.1701 156.77C70.4401 158.01 73.8801 159.1 76.4901 161.42C79.1001 163.74 80.6501 167.72 79.0001 170.8C77.3501 173.88 73.2201 174.8 69.7901 174.14C66.3601 173.48 63.3101 171.57 60.0501 170.3C53.9401 167.92 46.0501 168.22 42.0001 173.4C39.3601 176.8 39.0601 181.59 40.3001 185.71C41.5401 189.83 44.1401 193.4 46.9001 196.71C56.5601 208.25 69.0201 217.61 83.1801 222.71C97.3401 227.81 110.51 229.31 124.74 224.41" fill="#C8D9E7"/>
<path d="M123.001 224.94C119.251 211.49 109.001 179.84 102.851 164.94L98.2805 153.94C96.7705 150.33 95.2805 146.76 93.5905 143.35C90.3432 136.822 86.7377 130.479 82.7905 124.35C79.0505 118.45 75.2905 112.99 71.7905 107.9C68.2905 102.81 64.7905 98.1599 61.5105 94.0299C56.3381 87.4856 50.6535 81.363 44.5105 75.7199C42.3405 73.7199 40.6105 72.2199 39.4205 71.2199L38.0005 69.9999C37.6905 69.7499 37.5205 69.6299 37.5205 69.6299C37.5205 69.6299 37.6605 69.7799 37.9505 70.0499L39.2705 71.2299C40.4205 72.2299 42.1305 73.7899 44.2705 75.8199C50.3213 81.5295 55.9369 87.6833 61.0705 94.2299C64.3305 98.3699 67.7105 103.05 71.2605 108.13C74.8105 113.21 78.5305 118.69 82.2605 124.58C86.1829 130.712 89.765 137.055 92.9905 143.58C94.6605 146.98 96.1505 150.58 97.6605 154.15C99.1705 157.72 100.661 161.44 102.231 165.15C108.341 180.03 118.621 211.65 122.401 225.06" fill="#363636"/>
<path d="M93.3799 143.28C93.5868 142.669 93.7342 142.039 93.8199 141.4C94.0599 140.18 94.3599 138.4 94.6999 136.22C95.3899 131.84 96.1399 125.76 96.9499 119.05C97.7599 112.34 98.6099 106.29 99.3899 101.93C99.7699 99.7499 100.1 97.9899 100.39 96.7799C100.546 96.1563 100.65 95.5208 100.7 94.8799C100.455 95.474 100.268 96.0901 100.14 96.7199C99.8099 97.9199 99.4099 99.7199 98.9699 101.85C97.9999 106.19 97.0999 112.26 96.2899 119C95.4799 125.74 94.7799 131.67 94.2399 136.19C93.9699 138.29 93.7399 140.04 93.5599 141.39C93.4466 142.014 93.3864 142.646 93.3799 143.28V143.28Z" fill="#363636"/>
<path d="M36.1201 131.83C36.3111 131.891 36.5097 131.925 36.7101 131.93L38.4101 132.1C39.8901 132.25 42.0201 132.45 44.6401 132.78C49.8901 133.4 57.1201 134.53 65.0401 136.12C72.9601 137.71 80.0401 139.5 85.1401 140.93C87.6901 141.63 89.7401 142.25 91.1401 142.67L92.7801 143.15C92.9659 143.222 93.1614 143.266 93.3601 143.28C93.1936 143.17 93.0116 143.086 92.8201 143.03C92.3801 142.86 91.8201 142.66 91.2201 142.43C89.8301 141.93 87.7901 141.23 85.2201 140.43C80.1501 138.88 73.0501 137.03 65.1201 135.43C57.1901 133.83 50.0001 132.82 44.6901 132.31C42.0601 132.04 39.9101 131.91 38.4301 131.85H36.7201C36.5217 131.818 36.3202 131.812 36.1201 131.83V131.83Z" fill="#363636"/>
<path d="M117.42 206.63C117.572 206.413 117.703 206.182 117.81 205.94L118.81 203.94C119.67 202.16 120.81 199.56 122.29 196.33C125.15 189.88 128.82 180.84 132.75 170.82C136.68 160.8 140.27 151.7 143 145.2L146.28 137.52C146.64 136.66 146.94 135.97 147.17 135.43C147.283 135.189 147.374 134.938 147.44 134.68C147.278 134.89 147.147 135.123 147.05 135.37L146.05 137.37C145.19 139.15 144 141.75 142.58 144.97C139.72 151.43 136.04 160.47 132.12 170.49C128.2 180.51 124.59 189.57 121.84 196.07L118.56 203.75L117.68 205.84C117.561 206.091 117.474 206.357 117.42 206.63Z" fill="#363636"/>
<path d="M41.4902 181.22C41.7295 181.345 41.9808 181.445 42.2402 181.52L44.4502 182.27L52.5902 185C59.4602 187.3 68.9102 190.59 79.3402 194.25C89.7702 197.91 99.2602 201.13 106.17 203.32C109.62 204.41 112.43 205.27 114.37 205.83L116.62 206.46C116.88 206.548 117.148 206.608 117.42 206.64C117.177 206.512 116.923 206.408 116.66 206.33L114.45 205.58L106.31 202.87C99.4402 200.57 89.9902 197.28 79.5602 193.62C69.1302 189.96 59.6502 186.73 52.7402 184.55C49.2802 183.46 46.4802 182.6 44.5302 182.04L42.2902 181.4C42.0301 181.314 41.7621 181.253 41.4902 181.22V181.22Z" fill="#363636"/>
<path d="M508.761 70.3696H634.831L610.171 87.8996V102.54C610.115 109.773 607.189 116.688 602.036 121.765C596.882 126.841 589.924 129.663 582.691 129.61H503.581C496.347 129.663 489.389 126.841 484.235 121.765C479.082 116.688 476.156 109.773 476.101 102.54C476.132 98.2826 477.002 94.0735 478.66 90.1527C480.319 86.2318 482.733 82.6762 485.766 79.6888C488.799 76.7013 492.391 74.3407 496.336 72.7417C500.282 71.1427 504.504 70.3367 508.761 70.3696Z" fill="#C8D9E7"/>
<path d="M588.9 89.9397C588.9 90.0797 567.9 90.1997 541.9 90.1997C515.9 90.1997 494.9 90.0797 494.9 89.9397C494.9 89.7997 515.9 89.6797 541.9 89.6797C567.9 89.6797 588.9 89.7897 588.9 89.9397Z" fill="#363636"/>
<path d="M588.9 99.6799C588.9 99.8199 567.9 99.9399 541.9 99.9399C515.9 99.9399 494.9 99.8199 494.9 99.6799C494.9 99.5399 515.9 99.4199 541.9 99.4199C567.9 99.4199 588.9 99.5299 588.9 99.6799Z" fill="#363636"/>
<path d="M317.491 370.42H168.311L192.611 388V422.5C192.611 423.446 192.797 424.383 193.16 425.258C193.522 426.132 194.053 426.926 194.723 427.595C195.393 428.263 196.187 428.793 197.062 429.155C197.937 429.516 198.874 429.701 199.821 429.7H317.491C318.437 429.701 319.374 429.516 320.249 429.155C321.124 428.793 321.919 428.263 322.588 427.595C323.258 426.926 323.789 426.132 324.152 425.258C324.514 424.383 324.701 423.446 324.701 422.5V377.62C324.698 375.709 323.937 373.878 322.585 372.528C321.233 371.178 319.401 370.42 317.491 370.42V370.42Z" fill="#C8D9E7"/>
<path d="M311.27 394.8C311.27 394.95 288.77 395.06 261.02 395.06C233.27 395.06 210.771 394.95 210.771 394.8C210.771 394.65 233.26 394.54 261.02 394.54C288.78 394.54 311.27 394.66 311.27 394.8Z" fill="#363636"/>
<path d="M311.27 408.05C311.27 408.19 288.77 408.31 261.02 408.31C233.27 408.31 210.771 408.19 210.771 408.05C210.771 407.91 233.26 407.79 261.02 407.79C288.78 407.79 311.27 407.91 311.27 408.05Z" fill="#363636"/>
<path d="M622.08 200.4H447.49C426.067 200.4 408.7 217.767 408.7 239.19V381.29C408.7 402.714 426.067 420.08 447.49 420.08H622.08C643.503 420.08 660.87 402.714 660.87 381.29V239.19C660.87 217.767 643.503 200.4 622.08 200.4Z" fill="#D0004F"/>
<g opacity="0.4">
<path opacity="0.4" d="M622.08 200.4H447.49C426.067 200.4 408.7 217.767 408.7 239.19V381.29C408.7 402.714 426.067 420.08 447.49 420.08H622.08C643.503 420.08 660.87 402.714 660.87 381.29V239.19C660.87 217.767 643.503 200.4 622.08 200.4Z" fill="black"/>
</g>
<path d="M660.8 276.98H698.57L659.95 315.61L660.8 276.98Z" fill="#D0004F"/>
<g opacity="0.4">
<path opacity="0.4" d="M660.8 276.98H698.57L659.95 315.61L660.8 276.98Z" fill="black"/>
</g>
<path d="M402.66 300.73L386.83 282.73C382.55 278.45 381.08 276.39 381.94 275.64C383.08 274.64 382.59 274.97 391.48 281.64C391.48 281.64 378.88 272.01 383.25 271.95C384.02 271.95 386.16 273.19 388.45 274.69C385.33 272.04 384.45 270.25 385.06 269.4C386.06 267.92 393.78 273.27 397.33 275.84C394.43 273.68 388.9 269.49 387.93 268.17C386.59 266.37 389.3 266.52 391.5 267.27C393.97 268.11 407.62 275.08 411.66 276.88C411.984 277.074 412.346 277.195 412.721 277.234C413.096 277.274 413.476 277.233 413.833 277.112C414.19 276.991 414.517 276.795 414.791 276.535C415.065 276.276 415.28 275.961 415.42 275.61C416.91 269.35 421.42 265.28 423.14 264.75C424.86 264.22 426.19 266.42 424.96 268.02C423.803 269.882 422.908 271.894 422.3 274C421.743 275.653 421.469 277.387 421.49 279.13C421.49 281.13 421.63 282.86 421.76 284.31L436.23 304.16L412.03 318.16L402.66 300.73Z" fill="#B78876"/>
<path d="M397 284.44C396.84 284.66 394 282.73 390.72 280.12C387.44 277.51 384.88 275.21 385.07 275C385.26 274.79 388.07 276.73 391.35 279.32C394.63 281.91 397.14 284.21 397 284.44Z" fill="#AA6550"/>
<path d="M400.06 281.28C399.9 281.51 396.79 279.61 393.11 277.05C389.43 274.49 386.57 272.22 386.73 272C386.89 271.78 390 273.66 393.68 276.22C397.36 278.78 400.22 281.05 400.06 281.28Z" fill="#AA6550"/>
<path d="M402.3 277.92C402.14 278.15 399.16 276.41 395.65 274.03C392.14 271.65 389.42 269.54 389.57 269.3C389.72 269.06 392.7 270.81 396.22 273.19C399.74 275.57 402.45 277.69 402.3 277.92Z" fill="#AA6550"/>
<path d="M423.11 287L480.79 360.14L467.58 390.89C467.58 390.89 451.76 387.39 446.96 380.73C442.16 374.07 402.66 300.73 402.66 300.73L423.11 287Z" fill="#B78876"/>
<path d="M569.531 184.68C573.681 188.28 573.671 194.62 573.191 200.09C572.711 205.56 572.341 211.79 576.131 215.77C579.261 219.05 584.931 220.48 585.651 224.95C585.821 226 585.662 227.078 585.196 228.034C584.729 228.99 583.978 229.779 583.045 230.29C582.112 230.802 581.044 231.013 579.986 230.893C578.929 230.773 577.935 230.328 577.141 229.62C578.361 233.15 577.521 237.56 574.461 239.7C571.401 241.84 566.271 240.52 565.321 236.91C565.476 237.513 565.506 238.141 565.408 238.756C565.309 239.37 565.086 239.958 564.75 240.483C564.415 241.007 563.975 241.456 563.458 241.803C562.941 242.15 562.359 242.387 561.746 242.498C561.134 242.61 560.505 242.594 559.899 242.452C559.293 242.31 558.723 242.044 558.224 241.672C557.726 241.299 557.309 240.828 557 240.288C556.692 239.747 556.498 239.149 556.431 238.53" fill="#263238"/>
<path d="M510.1 221.6C509.541 222.94 508.474 224.002 507.132 224.555C505.79 225.107 504.284 225.104 502.945 224.545C501.605 223.987 500.543 222.92 499.99 221.578C499.438 220.236 499.441 218.73 500 217.39C500.95 215.31 503.2 213.81 503.42 211.53C503.68 208.78 500.87 206.81 498.42 205.61C495.97 204.41 493.01 202.85 492.74 200.09C492.47 197.33 494.86 195.36 496.85 193.58C498.84 191.8 500.85 189.04 499.58 186.67C498.95 185.45 497.64 184.76 496.79 183.67C494.92 181.29 495.9 177.5 498.29 175.67C500.68 173.84 503.98 173.55 506.96 174.08C509.94 174.61 512.74 175.85 515.64 176.72C520.447 178.118 525.492 178.504 530.456 177.854C535.42 177.203 540.195 175.53 544.48 172.94" fill="#263238"/>
<path d="M527.81 286.09C532.977 287.133 538.346 286.102 542.759 283.221C547.172 280.34 550.276 275.839 551.4 270.69L565.59 205.63C566.476 201.873 566.599 197.977 565.953 194.172C565.307 190.367 563.904 186.73 561.828 183.476C559.752 180.222 557.044 177.418 553.865 175.228C550.686 173.039 547.101 171.51 543.32 170.73L541.84 170.51C534.611 169.448 527.247 171.147 521.215 175.271C515.182 179.394 510.925 185.639 509.29 192.76C506.13 206.49 502.82 221.7 501.82 229.17C499.75 244.64 514.82 249.3 514.82 249.3L512.11 262.3C511.573 264.89 511.553 267.561 512.051 270.159C512.549 272.757 513.555 275.231 515.012 277.439C516.469 279.647 518.348 281.545 520.541 283.025C522.734 284.504 525.197 285.536 527.79 286.06L527.81 286.09Z" fill="#B78876"/>
<path d="M512.071 203C511.983 203.574 512.122 204.16 512.457 204.634C512.793 205.108 513.3 205.433 513.871 205.54C514.147 205.603 514.434 205.61 514.713 205.561C514.993 205.512 515.259 205.408 515.498 205.254C515.736 205.1 515.942 204.9 516.102 204.666C516.262 204.432 516.374 204.168 516.431 203.89C516.524 203.317 516.389 202.73 516.054 202.255C515.719 201.78 515.212 201.455 514.641 201.35C514.363 201.287 514.076 201.28 513.796 201.329C513.516 201.378 513.249 201.482 513.01 201.636C512.77 201.79 512.564 201.989 512.403 202.224C512.242 202.458 512.129 202.722 512.071 203V203Z" fill="#263238"/>
<path d="M511.5 200.8C511.73 201.13 513.58 200.13 515.96 200.49C518.34 200.85 519.89 202.28 520.19 202.03C520.34 201.92 520.13 201.36 519.46 200.7C518.538 199.839 517.371 199.283 516.12 199.11C514.887 198.924 513.627 199.134 512.52 199.71C511.71 200.17 511.39 200.65 511.5 200.8Z" fill="#263238"/>
<path d="M535.261 206.8C535.17 207.374 535.308 207.962 535.644 208.436C535.98 208.911 536.489 209.235 537.061 209.34C537.338 209.403 537.625 209.41 537.905 209.36C538.185 209.31 538.452 209.205 538.691 209.05C538.929 208.895 539.134 208.694 539.294 208.459C539.454 208.224 539.565 207.959 539.621 207.68C539.711 207.107 539.573 206.521 539.236 206.048C538.9 205.575 538.392 205.253 537.821 205.15C537.544 205.086 537.257 205.077 536.977 205.126C536.697 205.175 536.43 205.279 536.191 205.433C535.952 205.587 535.747 205.787 535.587 206.022C535.427 206.257 535.316 206.521 535.261 206.8V206.8Z" fill="#263238"/>
<path d="M534.76 204.66C534.99 204.98 536.84 203.99 539.21 204.35C541.58 204.71 543.15 206.14 543.45 205.89C543.59 205.78 543.39 205.22 542.71 204.56C541.787 203.698 540.621 203.143 539.37 202.97C538.137 202.784 536.876 202.994 535.77 203.57C535 204 534.64 204.51 534.76 204.66Z" fill="#263238"/>
<path d="M523.57 221C523.57 220.86 522.16 220.39 519.82 219.74C519.22 219.59 518.67 219.38 518.63 218.95C518.671 218.32 518.901 217.717 519.29 217.22C520.083 215.84 520.907 214.39 521.76 212.87C525.21 206.66 527.76 201.53 527.55 201.39C527.34 201.25 524.3 206.17 520.85 212.39L518.45 216.77C517.965 217.45 517.732 218.277 517.79 219.11C517.851 219.331 517.961 219.536 518.112 219.709C518.262 219.882 518.45 220.019 518.66 220.11C518.98 220.247 519.316 220.345 519.66 220.4C520.933 220.762 522.247 220.963 523.57 221Z" fill="#263238"/>
<path d="M535.5 195.27C535.64 195.95 538.06 195.99 540.79 196.73C543.52 197.47 545.66 198.56 546.12 198.04C546.32 197.79 546.02 197.12 545.21 196.37C544.111 195.426 542.811 194.745 541.409 194.379C540.007 194.014 538.54 193.973 537.12 194.26C536 194.52 535.45 195 535.5 195.27Z" fill="#263238"/>
<path d="M513.381 194.06C513.721 194.66 515.381 194.34 517.381 194.6C519.381 194.86 520.961 195.5 521.381 194.99C521.591 194.74 521.381 194.16 520.761 193.54C519.873 192.786 518.781 192.313 517.623 192.181C516.466 192.049 515.295 192.265 514.261 192.8C513.541 193.25 513.231 193.77 513.381 194.06Z" fill="#263238"/>
<path d="M551.311 186.24L551.381 186.32C553.559 188.62 554.763 191.673 554.741 194.84V195.15C554.741 199.65 553.931 204.15 553.941 208.6C553.951 213.05 554.811 217.79 557.621 221.29C558.771 222.74 561.011 223.94 562.321 222.64C562.782 222.087 563.077 221.414 563.171 220.7C565.551 210.19 569.831 201.19 571.441 190.07C571.664 188.582 571.529 187.061 571.047 185.635C570.565 184.209 569.751 182.919 568.671 181.87C566.591 179.87 564.001 177.71 561.231 178.56C558.461 179.41 554.411 183.76 552.101 185.56" fill="#263238"/>
<path d="M559.36 211.85C559.64 211.77 570.43 210.26 568.54 220.77C566.65 231.28 556.54 227.22 556.54 226.91C556.54 226.6 559.36 211.85 559.36 211.85Z" fill="#B78876"/>
<path d="M560.46 223.51C560.46 223.51 560.62 223.67 560.9 223.86C561.304 224.127 561.795 224.228 562.27 224.14C563.45 223.93 564.7 222.34 565.09 220.45C565.292 219.558 565.292 218.632 565.09 217.74C565.049 217.394 564.925 217.064 564.728 216.777C564.531 216.489 564.268 216.254 563.96 216.09C563.76 215.996 563.533 215.975 563.319 216.032C563.105 216.089 562.918 216.219 562.79 216.4C562.6 216.66 562.63 216.89 562.57 216.89C562.51 216.89 562.38 216.68 562.57 216.26C562.674 216.011 562.862 215.806 563.1 215.68C563.428 215.513 563.809 215.481 564.16 215.59C564.579 215.757 564.948 216.028 565.232 216.379C565.516 216.729 565.704 217.146 565.78 217.59C566.058 218.567 566.096 219.596 565.89 220.59C565.44 222.7 564 224.48 562.41 224.65C562.113 224.682 561.812 224.646 561.53 224.546C561.247 224.445 560.991 224.283 560.78 224.07C560.43 223.76 560.42 223.52 560.46 223.51Z" fill="#AA6550"/>
<path d="M561.35 180.25C564.57 176.4 558.35 169.3 553.35 166.89C548.35 164.48 541.15 166.02 535.71 166.98C532.28 167.59 528.8 168.63 525.38 167.98C523.11 167.412 520.939 166.506 518.94 165.29C516.935 164.097 514.711 163.318 512.4 163C511.238 162.857 510.058 163.034 508.988 163.512C507.919 163.989 507 164.749 506.33 165.71C505.14 167.71 505.97 170.84 508.21 171.49C507.535 170.978 506.746 170.637 505.91 170.496C505.074 170.356 504.216 170.42 503.411 170.684C502.605 170.948 501.876 171.403 501.285 172.011C500.694 172.619 500.26 173.36 500.018 174.173C499.777 174.986 499.737 175.844 499.9 176.676C500.064 177.508 500.427 178.287 500.958 178.948C501.489 179.608 502.173 180.13 502.95 180.468C503.727 180.807 504.575 180.952 505.42 180.89C504.09 179.53 501.51 181.08 501.42 182.98C501.33 184.88 502.83 186.49 504.42 187.5C508.53 190.08 513.75 190.21 518.53 189.35C523.31 188.49 527.89 186.71 532.65 185.73C537.41 184.75 545.4 182.89 549.7 185.16C552.86 186.82 554.6 191.16 556.61 190.57C557.562 190.22 558.419 189.652 559.113 188.913C559.807 188.173 560.32 187.282 560.61 186.31C561.152 184.359 561.378 182.333 561.28 180.31" fill="#263238"/>
<path d="M581.92 229C582.117 228.955 582.303 228.874 582.47 228.76C582.964 228.443 583.36 227.992 583.61 227.46C583.998 226.61 584.116 225.661 583.95 224.74C583.69 223.53 583.028 222.444 582.07 221.66C580.934 220.725 579.654 219.979 578.28 219.45C576.736 218.887 575.251 218.17 573.85 217.31C572.381 216.279 571.262 214.824 570.64 213.14C569.957 211.327 569.641 209.397 569.71 207.46C569.81 203.46 570.92 199.71 571.19 196.18C571.46 192.65 571.01 189.34 569.51 187.05C568.382 185.209 566.594 183.867 564.51 183.3C563.951 183.16 563.375 183.102 562.8 183.13C562.6 183.134 562.402 183.164 562.21 183.22C562.969 183.215 563.725 183.31 564.46 183.5C566.441 184.127 568.122 185.462 569.18 187.25C570.57 189.47 571.05 192.69 570.7 196.14C570.35 199.59 569.28 203.34 569.16 207.45C569.096 209.458 569.436 211.457 570.16 213.33C570.829 215.109 572.026 216.641 573.59 217.72C575.025 218.582 576.543 219.299 578.12 219.86C579.457 220.356 580.709 221.058 581.83 221.94C582.744 222.663 583.391 223.669 583.67 224.8C583.852 225.662 583.769 226.558 583.43 227.37C583.121 228.066 582.59 228.639 581.92 229V229Z" fill="#455A64"/>
<path d="M507.871 171.24C507.73 171.135 507.575 171.051 507.411 170.99C507.224 170.898 507.03 170.821 506.831 170.76C506.554 170.665 506.27 170.595 505.981 170.55C505.032 170.4 504.062 170.468 503.144 170.749C502.226 171.03 501.383 171.516 500.681 172.17V172.17C499.969 173.037 499.436 174.037 499.113 175.112C498.791 176.186 498.684 177.314 498.801 178.43C498.935 179.816 499.346 181.161 500.009 182.386C500.672 183.61 501.573 184.69 502.661 185.56C505.16 187.573 508.203 188.796 511.401 189.07C514.873 189.369 518.37 189.156 521.781 188.44C527.189 187.38 532.368 185.377 537.081 182.52C539.101 181.27 541.214 180.177 543.401 179.25C545.308 178.476 547.342 178.059 549.401 178.02C552.396 177.955 555.36 178.643 558.021 180.02C558.982 180.558 559.914 181.149 560.811 181.79C560.01 181.003 559.105 180.33 558.121 179.79C555.453 178.303 552.445 177.535 549.391 177.56C547.282 177.576 545.194 177.979 543.231 178.75C541.021 179.676 538.884 180.769 536.841 182.02C532.161 184.817 527.031 186.783 521.681 187.83C518.32 188.542 514.874 188.761 511.451 188.48C508.351 188.223 505.397 187.054 502.961 185.12C501.913 184.292 501.041 183.263 500.395 182.094C499.749 180.924 499.343 179.638 499.201 178.31C499.078 177.246 499.168 176.168 499.463 175.139C499.758 174.109 500.253 173.148 500.921 172.31V172.31C501.587 171.674 502.387 171.194 503.262 170.905C504.138 170.616 505.066 170.525 505.981 170.64C506.628 170.782 507.26 170.983 507.871 171.24V171.24Z" fill="#455A64"/>
<path d="M513.72 162.49C513.684 163.294 513.81 164.096 514.09 164.85C514.87 166.934 516.328 168.695 518.23 169.85C519.508 170.683 520.928 171.273 522.42 171.59C524.131 171.935 525.883 172.026 527.62 171.86C531.29 171.59 535.13 170.33 539.16 169.29C543.19 168.25 547.22 167.7 550.7 168.63C553.789 169.449 556.535 171.232 558.54 173.72C559.919 175.373 560.94 177.293 561.54 179.36C561.94 180.83 561.99 181.69 562.06 181.68C562.073 181.474 562.073 181.267 562.06 181.06C562.005 180.471 561.908 179.886 561.77 179.31C561.236 177.178 560.243 175.188 558.86 173.48C556.836 170.89 554.03 169.021 550.86 168.15C547.26 167.15 543.12 167.72 539.07 168.77C535.02 169.82 531.21 171.08 527.62 171.37C525.929 171.545 524.221 171.474 522.55 171.16C521.105 170.866 519.723 170.318 518.47 169.54C516.616 168.447 515.164 166.785 514.33 164.8C514.062 164.049 513.858 163.276 513.72 162.49V162.49Z" fill="#455A64"/>
<path d="M518.83 228.85C518.962 229.883 519.234 230.892 519.64 231.85C519.853 232.324 520.163 232.747 520.551 233.092C520.939 233.437 521.395 233.695 521.89 233.85C522.427 233.961 522.982 233.936 523.506 233.777C524.03 233.618 524.506 233.33 524.89 232.94C525.657 232.133 526.15 231.104 526.3 230C526.46 229 526.3 227.75 525.3 227.43C524.896 227.33 524.474 227.33 524.07 227.43L518.53 228.43" fill="#AA6550"/>
<path d="M519.8 233.05C520.681 233.389 521.616 233.565 522.56 233.57C523.537 233.513 524.457 233.092 525.14 232.39C525.543 231.961 525.85 231.451 526.042 230.894C526.233 230.337 526.304 229.746 526.25 229.16C526.22 228.86 526.153 228.564 526.05 228.28C525.92 228.01 525.96 228.03 525.73 228C525.5 227.97 525.14 228 524.84 228.05L523.91 228.12C522.71 228.21 521.63 228.28 520.72 228.33C519.723 228.469 518.71 228.449 517.72 228.27C518.655 227.929 519.636 227.727 520.63 227.67C521.53 227.54 522.63 227.41 523.8 227.27L524.72 227.17C525.051 227.121 525.385 227.091 525.72 227.08C525.984 227.087 526.24 227.178 526.45 227.34C526.636 227.505 526.777 227.715 526.86 227.95C526.996 228.31 527.083 228.687 527.12 229.07C527.185 229.79 527.091 230.516 526.844 231.195C526.597 231.874 526.203 232.491 525.69 233C524.836 233.812 523.697 234.254 522.52 234.23C521.751 234.233 520.996 234.022 520.34 233.62C520 233.34 519.77 233.09 519.8 233.05Z" fill="#263238"/>
<path d="M514.84 249.3C514.84 249.3 524.92 253.12 534.73 250.3C534.73 250.3 527.33 256.51 513.83 254.13L514.84 249.3Z" fill="#AA6550"/>
<path d="M530.22 392.67C529.735 392.352 529.273 391.997 528.841 391.61C528.411 391.26 527.84 390.83 527.23 390.37C526.62 389.91 525.881 389.37 525.031 388.82C524.181 388.27 523.301 387.67 522.271 387.1C521.241 386.53 520.15 385.93 518.98 385.33C513.85 382.806 508.334 381.156 502.661 380.45C501.351 380.31 500.111 380.15 498.941 380.12C497.771 380.09 496.681 380.04 495.691 380.05C494.701 380.06 493.791 380.11 493.001 380.14C492.211 380.17 491.531 380.23 491.001 380.29C490.428 380.378 489.849 380.418 489.271 380.41C489.833 380.266 490.404 380.159 490.981 380.09C491.643 379.976 492.31 379.896 492.981 379.85C493.771 379.79 494.671 379.68 495.681 379.68C496.691 379.68 497.781 379.62 498.961 379.68C500.141 379.74 501.401 379.84 502.721 379.96C505.582 380.316 508.411 380.898 511.181 381.7C513.929 382.545 516.605 383.611 519.181 384.89C520.351 385.51 521.48 386.08 522.47 386.72C523.46 387.36 524.4 387.93 525.22 388.51C526.04 389.09 526.761 389.65 527.391 390.13C528.021 390.61 528.541 391.07 528.951 391.45C529.407 391.821 529.832 392.229 530.22 392.67Z" fill="#FAFAFA"/>
<path d="M471.45 341.31L479.65 305.78C482.79 292.42 486.51 279.58 492.76 278.06V282.19L490.08 383.7C490.08 383.7 473.37 402.7 452.08 392.16C445.42 388.85 433.27 365.6 433.27 365.6C433.27 365.6 405 315.16 406.18 312.87C407.36 310.58 424.63 288.32 426.39 287.21L471.45 341.31Z" fill="#D0004F"/>
<path d="M555.83 268C572.13 271.12 590.48 280.63 598.93 305C602.01 313.9 624.45 379.51 624.45 379.51L586.18 378.71L580 365.2L583 387.15L585.59 418.45L488.95 420.08L489.63 372.92L490.56 279.12C490.56 279.12 491.64 277.7 508.31 268.51C518.65 262.8 555.83 268 555.83 268Z" fill="#D0004F"/>
<g opacity="0.2">
<path opacity="0.2" d="M565.471 330.74C567.061 350.54 568.881 356.66 570.471 376.46C570.508 378.335 570.846 380.192 571.471 381.96C571.805 382.84 572.341 383.628 573.035 384.262C573.73 384.896 574.564 385.358 575.471 385.61C578.291 386.18 581.951 388.22 582.741 385.46L580.071 366.39C579.497 363.616 578.611 360.916 577.431 358.34C571.501 345.17 569.311 344.4 565.431 330.74" fill="black"/>
</g>
<path d="M508.3 278.66L508.62 276.6L511.71 256.84C511.799 256.266 512.102 255.747 512.558 255.387C513.015 255.027 513.591 254.853 514.17 254.9L552.22 258.08C553.369 258.175 554.435 258.72 555.184 259.596C555.933 260.473 556.305 261.61 556.22 262.76L555.37 274.24L543.49 289.74L526.38 292.41" fill="#D0004F"/>
<path d="M489.191 315.81C489.341 315.81 489.451 331.29 489.451 350.38C489.451 369.47 489.341 384.95 489.191 384.95C489.041 384.95 488.931 369.47 488.931 350.38C488.931 331.29 489.051 315.81 489.191 315.81Z" fill="#263238"/>
<path d="M587 381.89C587 381.89 587 381.82 586.88 381.67C586.76 381.52 586.69 381.27 586.56 380.99L585.4 378.36L581.23 368.65L567.64 336.54C565 330.26 562.49 324.28 560.21 318.83C559.058 316.278 558.231 313.59 557.75 310.83C557.328 308.42 557.107 305.978 557.09 303.53C556.963 299.984 557.478 296.444 558.61 293.08L558.92 292.25L559.27 291.55C559.435 291.178 559.636 290.823 559.87 290.49L560.29 289.87C560.339 289.8 560.392 289.733 560.45 289.67C559.792 290.776 559.24 291.941 558.8 293.15C557.754 296.506 557.3 300.019 557.46 303.53C557.477 308.745 558.563 313.901 560.65 318.68L568.12 336.37L581.57 368.54L585.57 378.31L586.64 380.98L586.91 381.68C586.947 381.747 586.977 381.818 587 381.89V381.89Z" fill="#263238"/>
<path d="M567.691 271.49C567.341 271.845 566.97 272.179 566.581 272.49C565.456 273.348 564.23 274.063 562.931 274.62C560.872 275.479 558.716 276.084 556.511 276.42C553.596 276.873 550.658 277.164 547.711 277.29C544.431 277.43 540.851 277.37 537.011 277.44C532.932 277.433 528.867 277.93 524.91 278.92C520.527 279.956 516.559 282.296 513.531 285.63C512.022 287.446 510.942 289.579 510.371 291.87C509.76 294.22 509.802 296.692 510.491 299.02C510.873 300.169 511.437 301.249 512.16 302.22C512.889 303.162 513.81 303.94 514.861 304.5C515.88 305.059 517.042 305.302 518.201 305.2C519.333 305.084 520.382 304.549 521.141 303.7C521.817 302.807 522.298 301.783 522.552 300.692C522.807 299.602 522.831 298.47 522.621 297.37C522.454 296.284 522.117 295.231 521.621 294.25C521.127 293.294 520.534 292.392 519.85 291.56C517.178 288.48 513.577 286.35 509.591 285.49C506.136 284.675 502.535 284.717 499.101 285.61C496.275 286.341 493.578 287.498 491.101 289.04C489.214 290.216 487.434 291.555 485.781 293.04C484.411 294.24 483.441 295.28 482.781 295.96L482.041 296.76C481.96 296.856 481.869 296.943 481.771 297.02C482.948 295.533 484.253 294.151 485.671 292.89C487.308 291.376 489.082 290.016 490.971 288.83C493.472 287.239 496.204 286.045 499.071 285.29C502.562 284.354 506.23 284.292 509.751 285.11C513.84 285.973 517.537 288.146 520.281 291.3C520.979 292.135 521.589 293.04 522.1 294C522.605 295.03 522.943 296.134 523.1 297.27C523.275 298.429 523.255 299.608 523.04 300.76C522.825 301.959 522.297 303.08 521.511 304.01C520.67 304.954 519.507 305.549 518.251 305.68C516.989 305.8 515.721 305.539 514.611 304.93C513.494 304.334 512.516 303.51 511.741 302.51C510.977 301.492 510.383 300.357 509.981 299.15C509.262 296.731 509.22 294.161 509.861 291.72C510.444 289.349 511.563 287.143 513.131 285.27C516.233 281.868 520.29 279.48 524.771 278.42C528.773 277.442 532.881 276.965 537.001 277C540.851 276.94 544.431 277 547.691 276.91C550.626 276.808 553.554 276.544 556.461 276.12C558.653 275.805 560.801 275.235 562.861 274.42C564.153 273.895 565.381 273.224 566.521 272.42C566.921 272.15 567.191 271.9 567.391 271.76C567.482 271.661 567.582 271.57 567.691 271.49V271.49Z" fill="#FAFAFA"/>
<path d="M600.761 313.11C600.62 313.15 600.476 313.173 600.331 313.18C600.051 313.18 599.641 313.25 599.101 313.27C597.59 313.32 596.077 313.283 594.571 313.16C592.661 313.02 590.401 312.73 587.901 312.38C585.401 312.03 582.661 311.66 579.761 311.51C577.049 311.363 574.33 311.568 571.671 312.12C569.497 312.562 567.409 313.356 565.491 314.47C563.753 315.533 562.21 316.886 560.931 318.47C560.985 318.336 561.059 318.212 561.151 318.1C561.362 317.747 561.603 317.412 561.871 317.1C562.84 315.917 563.999 314.903 565.301 314.1C567.232 312.921 569.348 312.075 571.561 311.6C574.262 311.011 577.03 310.789 579.791 310.94C582.721 311.09 585.471 311.49 587.971 311.86C590.471 312.23 592.711 312.56 594.601 312.74C596.491 312.92 598.041 313 599.101 313.01C599.656 313.01 600.21 313.043 600.761 313.11V313.11Z" fill="#FAFAFA"/>
<path d="M576.73 357.94C574.85 357.503 572.917 357.338 570.99 357.45C568.73 357.603 566.494 358.002 564.32 358.64C561.77 359.33 558.92 360.34 555.72 361.33C552.246 362.509 548.609 363.139 544.94 363.2C540.716 363.199 536.536 362.331 532.66 360.65C528.353 358.83 524.522 356.045 521.46 352.51C519.804 350.663 518.454 348.564 517.46 346.29C516.403 343.938 516.006 341.342 516.31 338.78C516.659 336.199 517.918 333.826 519.86 332.09C520.825 331.249 521.983 330.658 523.23 330.37C524.451 330.112 525.716 330.147 526.92 330.472C528.125 330.797 529.235 331.403 530.16 332.24C531.064 333.069 531.692 334.154 531.96 335.35C532.219 336.521 532.125 337.743 531.69 338.86C531.27 339.935 530.633 340.912 529.82 341.73C528.27 343.284 526.395 344.475 524.33 345.22C523.358 345.589 522.354 345.867 521.33 346.05C520.83 346.14 520.33 346.25 519.84 346.32L518.35 346.5C514.696 346.862 511.007 346.602 507.44 345.73C504.499 345.03 501.664 343.94 499.01 342.49C497.004 341.406 495.123 340.105 493.4 338.61L492.4 337.74L491.58 336.91C491.138 336.491 490.724 336.044 490.34 335.57L489.62 334.71C489.538 334.617 489.465 334.517 489.4 334.41C489.497 334.493 489.587 334.584 489.67 334.68L490.42 335.5C490.817 335.959 491.241 336.393 491.69 336.8L492.52 337.61L493.52 338.46C495.25 339.914 497.131 341.178 499.13 342.23C501.77 343.641 504.584 344.697 507.5 345.37C511.032 346.212 514.68 346.448 518.29 346.07L519.75 345.89C520.24 345.81 520.75 345.7 521.23 345.61C522.231 345.43 523.212 345.155 524.16 344.79C526.157 344.063 527.97 342.906 529.47 341.4C530.235 340.626 530.834 339.704 531.23 338.69C531.623 337.66 531.709 336.539 531.48 335.46C531.184 334.359 530.592 333.36 529.769 332.57C528.946 331.781 527.923 331.231 526.81 330.98C525.671 330.652 524.467 330.618 523.31 330.882C522.154 331.146 521.084 331.699 520.2 332.49C518.349 334.14 517.153 336.401 516.83 338.86C516.544 341.325 516.924 343.822 517.93 346.09C518.898 348.31 520.207 350.365 521.81 352.18C524.82 355.65 528.582 358.387 532.81 360.18C536.625 361.845 540.738 362.716 544.9 362.74C548.532 362.696 552.135 362.088 555.58 360.94C558.77 359.94 561.58 359 564.21 358.33C566.406 357.713 568.663 357.341 570.94 357.22C571.77 357.168 572.601 357.168 573.43 357.22C574.14 357.33 574.75 357.38 575.23 357.49L576.32 357.76C576.465 357.801 576.603 357.862 576.73 357.94V357.94Z" fill="#FAFAFA"/>
<path d="M488.86 347.27C488.77 347.27 488.31 346.27 487.34 344.59C484.802 340.327 481.101 336.875 476.67 334.64C474.97 333.78 473.85 333.4 473.88 333.31C474.161 333.335 474.437 333.399 474.7 333.5C475.428 333.717 476.14 333.984 476.83 334.3C479.122 335.345 481.229 336.753 483.07 338.47C484.915 340.185 486.466 342.192 487.66 344.41C488.039 345.074 488.373 345.762 488.66 346.47C488.762 346.727 488.83 346.996 488.86 347.27V347.27Z" fill="#FAFAFA"/>
<path d="M450.06 390.07C450.06 390.07 449.99 389.99 449.9 389.82C449.81 389.65 449.66 389.38 449.49 389.07C449.13 388.41 448.61 387.42 447.97 386.14C446.112 382.527 444.58 378.755 443.39 374.87C442.595 372.171 442.115 369.39 441.96 366.58C441.88 365.011 441.944 363.438 442.15 361.88C442.398 360.232 442.793 358.609 443.33 357.03C444.497 353.618 446.518 350.561 449.2 348.15C450.632 346.836 452.317 345.826 454.151 345.181C455.985 344.537 457.93 344.271 459.87 344.4C461.886 344.551 463.768 345.467 465.13 346.96C465.778 347.699 466.249 348.575 466.507 349.523C466.765 350.471 466.804 351.465 466.62 352.43C466.404 353.377 465.909 354.237 465.2 354.9C464.507 355.535 463.669 355.992 462.76 356.23C461 356.688 459.131 356.463 457.53 355.6C456.044 354.798 454.746 353.691 453.72 352.35C452.736 351.109 451.926 349.74 451.31 348.28C450.228 345.662 449.779 342.825 450 340C450.202 337.67 450.883 335.406 452 333.35C452.828 331.799 453.887 330.383 455.14 329.15C455.924 328.368 456.785 327.668 457.71 327.06C458.02 326.85 458.28 326.72 458.45 326.62L458.71 326.49C458.71 326.49 458.39 326.72 457.77 327.15C456.877 327.787 456.044 328.503 455.28 329.29C454.082 330.534 453.071 331.945 452.28 333.48C451.217 335.51 450.581 337.736 450.41 340.02C450.217 342.79 450.683 345.566 451.77 348.12C452.377 349.536 453.171 350.865 454.13 352.07C455.125 353.354 456.379 354.413 457.81 355.18C459.304 355.985 461.049 356.192 462.69 355.76C463.532 355.563 464.303 355.138 464.919 354.531C465.534 353.924 465.971 353.159 466.18 352.32C466.339 351.437 466.297 350.529 466.058 349.663C465.819 348.798 465.389 347.997 464.8 347.32C463.524 345.928 461.764 345.077 459.88 344.94C458.011 344.817 456.137 345.073 454.371 345.694C452.604 346.314 450.981 347.286 449.6 348.55C446.982 350.905 445.004 353.884 443.85 357.21C443.311 358.754 442.912 360.344 442.66 361.96C442.452 363.491 442.382 365.037 442.45 366.58C442.59 369.36 443.046 372.114 443.81 374.79C444.962 378.665 446.434 382.438 448.21 386.07L449.64 389.07C449.79 389.39 449.91 389.65 450.01 389.85C450.11 390.05 450.06 390.07 450.06 390.07Z" fill="#FAFAFA"/>
<path d="M437.71 301.79C437.71 301.79 437.76 301.93 437.8 302.2C437.871 302.604 437.921 303.011 437.95 303.42C438.082 304.914 438.082 306.416 437.95 307.91C437.546 312.884 435.845 317.665 433.016 321.776C430.188 325.887 426.331 329.185 421.83 331.34C420.483 331.998 419.081 332.537 417.64 332.95C417.14 333.11 416.73 333.18 416.46 333.25C416.19 333.32 416.04 333.33 416.04 333.31C416.541 333.094 417.055 332.91 417.58 332.76C418.983 332.274 420.35 331.689 421.67 331.01C426.051 328.797 429.805 325.518 432.587 321.474C435.369 317.431 437.089 312.753 437.59 307.87C437.748 306.396 437.805 304.912 437.76 303.43C437.708 302.885 437.691 302.337 437.71 301.79V301.79Z" fill="#FAFAFA"/>
<path d="M609.51 345.15C608.023 346.082 606.715 347.275 605.65 348.67C604.65 349.96 603.65 351.67 602.52 353.47C601.281 355.486 599.851 357.378 598.25 359.12C595.322 362.283 591.851 364.895 588 366.83C586.841 367.417 585.645 367.928 584.42 368.36C583.973 368.536 583.511 368.67 583.04 368.76C583.454 368.524 583.889 368.326 584.34 368.17C585.18 367.8 586.4 367.28 587.83 366.5C591.566 364.492 594.945 361.88 597.83 358.77C599.414 357.055 600.837 355.197 602.08 353.22C603.074 351.568 604.159 349.972 605.33 348.44C606.144 347.414 607.112 346.52 608.2 345.79C608.495 345.594 608.806 345.424 609.13 345.28C609.39 345.18 609.51 345.13 609.51 345.15Z" fill="#FAFAFA"/>
<path d="M555.47 269.2C555.324 269.263 555.169 269.303 555.01 269.32L553.68 269.56C552.52 269.75 550.84 270 548.77 270.28C544.61 270.84 538.85 271.5 532.46 271.97C529.469 272.243 526.464 272.35 523.46 272.29C520.983 272.23 518.527 271.809 516.17 271.04C514.58 270.524 513.079 269.765 511.72 268.79C511.35 268.529 510.996 268.245 510.66 267.94C510.44 267.72 510.33 267.61 510.34 267.59C510.35 267.57 510.86 267.99 511.83 268.59C513.212 269.478 514.709 270.171 516.281 270.65C518.616 271.361 521.04 271.738 523.48 271.77C526.485 271.802 529.488 271.682 532.48 271.41C538.85 270.94 544.61 270.35 548.77 269.88L553.7 269.32C554.287 269.239 554.878 269.199 555.47 269.2V269.2Z" fill="#263238"/>
<path d="M624.001 386.59C624.753 390.459 624.646 394.446 623.685 398.268C622.725 402.091 620.936 405.655 618.444 408.709C615.953 411.763 612.82 414.231 609.268 415.938C605.716 417.646 601.832 418.552 597.891 418.59L522.141 417.75L524.141 393.22L589.001 383.48" fill="#B78876"/>
<path d="M528.78 394.29C528.43 394.4 524.06 392.44 520.14 390.63C515.982 388.704 511.417 387.818 506.84 388.05L488.78 388.97C488.78 388.97 489.89 391.97 491.78 392.97C493.67 393.97 505 394.29 505 394.29L504.42 394.88C502.051 397.32 498.82 398.735 495.42 398.82H493.69C492.409 398.719 491.144 398.471 489.92 398.08L485.47 396.28C484.12 395.68 482.7 395.77 482.11 397.13C481.52 398.49 481.97 400.05 485.65 401.9C487.7 402.9 495.32 405.57 495.32 405.57C495.372 406.655 495.523 407.733 495.77 408.79C496.1 409.9 499.09 411.01 499.09 411.01C499.867 412.656 500.756 414.246 501.75 415.77C502.1 416.17 504.81 417.02 507.7 417.83C512.359 419.134 517.292 419.096 521.93 417.72L528.81 415.66V394.66" fill="#B78876"/>
<path d="M504.081 408C500.899 407.919 497.779 407.097 494.971 405.6C494.971 405.48 496.971 406.24 499.501 406.89C502.031 407.54 504.091 407.85 504.081 408Z" fill="#AA6550"/>
<path d="M503.44 412.21C502.592 412.386 501.712 412.32 500.9 412.02C500.052 411.864 499.263 411.476 498.62 410.9C499.438 411.064 500.241 411.294 501.02 411.59C501.841 411.735 502.651 411.942 503.44 412.21V412.21Z" fill="#AA6550"/>
<path d="M506.74 392.66C506.345 393.216 505.877 393.717 505.35 394.15C504.152 395.294 502.831 396.3 501.41 397.15C499.978 397.986 498.422 398.587 496.8 398.93C496.148 399.104 495.474 399.179 494.8 399.15C497.035 398.636 499.193 397.833 501.22 396.76C502.609 395.923 503.93 394.976 505.17 393.93C505.654 393.461 506.18 393.036 506.74 392.66Z" fill="#AA6550"/>
<path d="M530.62 391L528.78 418.74H600.13C604.975 418.743 609.728 417.426 613.88 414.93V414.93C618.579 412.106 622.294 407.904 624.52 402.894C626.746 397.884 627.375 392.31 626.32 386.93C625.294 381.662 623.753 376.507 621.72 371.54L585.84 377.45L586.99 381.91L530.62 391Z" fill="#D0004F"/>
<path d="M603.52 379.58C603.284 379.649 603.043 379.702 602.8 379.74L600.71 380.12L593 381.4L567.64 385.4L542.25 389.29L534.55 390.41L532.45 390.69C532.205 390.724 531.958 390.744 531.71 390.75C531.947 390.668 532.191 390.611 532.44 390.58L534.52 390.21L542.2 388.92L567.56 384.92L593 381L600.7 379.88L602.8 379.6C603.039 379.568 603.28 379.561 603.52 379.58V379.58Z" fill="#263238"/>
<path d="M567 418.76C566.87 418.76 567.43 416.76 567.5 413.49C567.516 412.602 567.479 411.714 567.39 410.83C567.305 409.822 567.158 408.82 566.95 407.83C566.455 405.548 565.676 403.338 564.63 401.25C563.56 399.172 562.251 397.225 560.73 395.45L559.73 394.28C559.39 393.9 559.02 393.57 558.68 393.23C558.01 392.54 557.3 391.99 556.68 391.46C554.13 389.46 552.32 388.46 552.38 388.37C552.823 388.547 553.248 388.765 553.65 389.02C554.148 389.28 554.629 389.57 555.09 389.89C555.62 390.27 556.28 390.64 556.91 391.18C557.63 391.719 558.318 392.3 558.97 392.92C559.32 393.26 559.71 393.58 560.06 393.92L561.15 395.1C562.717 396.888 564.06 398.859 565.15 400.97C566.209 403.101 566.989 405.36 567.47 407.69C567.675 408.71 567.809 409.742 567.87 410.78C567.934 411.679 567.934 412.581 567.87 413.48C567.851 414.227 567.784 414.972 567.67 415.71C567.615 416.267 567.518 416.818 567.38 417.36C567.294 417.837 567.167 418.305 567 418.76V418.76Z" fill="#FAFAFA"/>
<path d="M610.44 416.67C609.326 416.664 608.216 416.533 607.13 416.28C605.851 415.987 604.609 415.547 603.43 414.97C601.867 414.193 600.455 413.143 599.26 411.87C597.811 410.31 596.758 408.423 596.19 406.37C595.874 405.229 595.696 404.054 595.66 402.87C595.588 401.619 595.689 400.364 595.96 399.14C596.228 397.838 596.729 396.594 597.44 395.47C598.182 394.279 599.214 393.295 600.44 392.61C601.708 391.871 603.165 391.523 604.63 391.61C605.383 391.662 606.118 391.867 606.79 392.21C607.462 392.554 608.057 393.03 608.54 393.61C609.04 394.182 609.415 394.852 609.643 395.577C609.87 396.301 609.944 397.065 609.86 397.82C609.737 398.553 609.453 399.249 609.027 399.858C608.602 400.467 608.046 400.973 607.4 401.34C604.98 402.608 602.192 402.99 599.52 402.42C595.727 401.829 592.26 399.93 589.72 397.052C587.179 394.174 585.725 390.498 585.61 386.66C585.546 385.546 585.641 384.428 585.89 383.34C585.798 384.441 585.771 385.546 585.81 386.65C585.997 389.66 586.98 392.566 588.66 395.07C589.912 396.909 591.527 398.472 593.404 399.663C595.282 400.855 597.384 401.65 599.58 402C602.134 402.549 604.798 402.196 607.12 401C607.7 400.672 608.201 400.22 608.584 399.675C608.968 399.13 609.227 398.507 609.34 397.85C609.399 397.166 609.322 396.477 609.114 395.822C608.906 395.167 608.571 394.56 608.128 394.035C607.685 393.51 607.143 393.078 606.532 392.763C605.921 392.448 605.255 392.257 604.57 392.2C603.214 392.108 601.861 392.418 600.68 393.09C599.569 393.754 598.614 394.65 597.881 395.717C597.147 396.783 596.653 397.995 596.43 399.27C596.159 400.457 596.055 401.675 596.12 402.89C596.148 404.036 596.312 405.174 596.61 406.28C597.137 408.279 598.139 410.121 599.53 411.65C600.674 412.905 602.027 413.951 603.53 414.74C604.683 415.329 605.897 415.788 607.15 416.11C609.25 416.58 610.45 416.6 610.44 416.67Z" fill="#FAFAFA"/>
<path d="M327.41 114.47H148.72C138.276 114.47 128.259 118.619 120.874 126.004C113.489 133.39 109.34 143.406 109.34 153.85V217.53H70.79L109.34 256.08V299.37C109.34 309.814 113.489 319.831 120.874 327.216C128.259 334.601 138.276 338.75 148.72 338.75H327.41C337.854 338.75 347.871 334.601 355.256 327.216C362.641 319.831 366.79 309.814 366.79 299.37V153.85C366.79 143.406 362.641 133.39 355.256 126.004C347.871 118.619 337.854 114.47 327.41 114.47V114.47Z" fill="#D0004F"/>
<path d="M254.41 121.2C253.28 124.13 255.22 127.32 257.41 129.58C259.6 131.84 262.22 133.98 262.91 137.04C263.48 139.61 262.53 142.28 262.76 144.9C262.99 147.52 264.44 149.99 265.26 152.55C266.75 157.19 266.15 162.26 264.82 166.95C263.861 170.848 262.028 174.476 259.46 177.56C258.167 179.088 256.564 180.324 254.757 181.186C252.95 182.048 250.981 182.516 248.98 182.56C248.414 182.596 247.847 182.515 247.314 182.322C246.78 182.129 246.292 181.829 245.88 181.44C245.319 180.631 245.009 179.675 244.99 178.69C242.7 158.555 242.7 138.225 244.99 118.09" fill="#263238"/>
<path d="M252.3 186.09C261 185.71 269.04 194.04 268.35 202.72C277.16 204.87 283.35 214.56 281.66 223.46C281.09 226.4 279.78 229.2 279.6 232.18C279.4 235.44 280.6 238.61 281.19 241.81C282.322 247.642 281.717 253.679 279.45 259.17C278.08 262.48 275.52 265.9 271.94 266C270.727 265.949 269.546 265.6 268.499 264.985C267.453 264.369 266.574 263.506 265.94 262.47C264.694 260.374 263.872 258.053 263.52 255.64C261.97 247.82 261.52 239.79 259.36 232.12C257.2 224.45 253 216.89 246.07 213C242.24 210.84 237.64 209.82 234.59 206.65C233.056 204.92 232.033 202.797 231.636 200.519C231.238 198.241 231.482 195.897 232.34 193.75C233.239 191.622 234.576 189.707 236.265 188.131C237.954 186.554 239.955 185.351 242.14 184.6" fill="#263238"/>
<path d="M192.08 128.37C191.98 124.65 195.41 121.78 198.87 120.37C202.33 118.96 206.18 118.49 209.26 116.37C212 114.53 213.83 111.66 216.14 109.37C218.992 106.478 222.563 104.396 226.486 103.34C230.408 102.283 234.542 102.29 238.461 103.359C242.38 104.428 245.944 106.52 248.788 109.422C251.631 112.324 253.651 115.93 254.64 119.87C255.97 125.16 255.06 131.42 250.89 134.94C246.05 139.02 238.89 138.11 232.66 136.84C226.43 135.57 219.43 134.32 214.25 137.97C211.13 140.16 209.33 143.74 207.42 147.05C205.51 150.36 203.12 153.73 199.51 154.98C195.9 156.23 190.99 154.07 190.85 150.26" fill="#263238"/>
<path d="M206.74 129.13C205.192 129.298 203.762 130.04 202.735 131.21C201.707 132.38 201.156 133.893 201.19 135.45V135.45L204.9 219.45C205.06 229.37 219.56 234.94 230.18 234.69C240.91 234.44 241.25 229.18 241.39 219.74C241.61 203.98 241.59 198.06 241.6 198.15C241.61 198.24 255.15 195.87 257.92 178.15C259.29 169.36 258.82 154.94 258.05 143.15C257.36 132.54 250.3 119.54 239.73 120.68L206.74 129.13Z" fill="#FFBE9D"/>
<path d="M255 154.29C255.005 154.88 254.781 155.45 254.374 155.877C253.967 156.305 253.41 156.557 252.82 156.58C252.534 156.605 252.247 156.572 251.974 156.485C251.701 156.397 251.449 156.256 251.231 156.07C251.013 155.884 250.835 155.656 250.706 155.401C250.577 155.145 250.5 154.866 250.48 154.58C250.471 153.989 250.695 153.419 251.103 152.991C251.51 152.562 252.069 152.311 252.66 152.29C252.945 152.266 253.233 152.298 253.505 152.386C253.778 152.473 254.031 152.614 254.248 152.8C254.466 152.986 254.645 153.214 254.774 153.47C254.903 153.726 254.98 154.004 255 154.29V154.29Z" fill="#263238"/>
<path d="M254.94 150.69C254.66 150.99 252.94 149.69 250.5 149.69C248.06 149.69 246.27 150.93 246 150.63C245.87 150.5 246.16 149.96 246.94 149.39C247.992 148.657 249.247 148.269 250.53 148.28C251.799 148.273 253.039 148.668 254.07 149.41C254.82 150 255.08 150.56 254.94 150.69Z" fill="#263238"/>
<path d="M231.55 154.29C231.556 154.88 231.332 155.45 230.925 155.877C230.518 156.305 229.96 156.557 229.37 156.58C229.085 156.605 228.798 156.572 228.525 156.485C228.252 156.397 228 156.256 227.782 156.07C227.564 155.884 227.385 155.656 227.256 155.401C227.127 155.145 227.051 154.866 227.03 154.58C227.022 153.989 227.246 153.419 227.653 152.991C228.061 152.562 228.62 152.311 229.211 152.29C229.496 152.266 229.783 152.298 230.056 152.386C230.329 152.473 230.581 152.614 230.799 152.8C231.017 152.986 231.196 153.214 231.325 153.47C231.454 153.726 231.53 154.004 231.55 154.29V154.29Z" fill="#263238"/>
<path d="M231 151.2C230.72 151.5 229 150.2 226.56 150.2C224.12 150.2 222.33 151.44 222.07 151.14C221.94 151.01 222.22 150.47 223 149.9C224.052 149.166 225.306 148.774 226.59 148.78C227.861 148.776 229.1 149.175 230.13 149.92C230.83 150.53 231.09 151.07 231 151.2Z" fill="#263238"/>
<path d="M239.85 169.28C239.85 169.14 241.35 168.88 243.85 168.56C244.47 168.49 245.06 168.36 245.17 167.94C245.216 167.295 245.07 166.652 244.75 166.09L242.89 161.35C240.32 154.6 238.45 149.05 238.73 148.95C239.01 148.85 241.31 154.24 243.88 160.95L245.66 165.72C246.048 166.471 246.164 167.333 245.99 168.16C245.902 168.378 245.767 168.574 245.594 168.733C245.421 168.892 245.215 169.011 244.99 169.08C244.664 169.17 244.328 169.217 243.99 169.22C241.39 169.4 239.86 169.42 239.85 169.28Z" fill="#263238"/>
<path d="M241.6 198.16C233.272 198.304 225.068 196.133 217.9 191.89C217.9 191.89 223.67 204.03 241.37 202.33L241.6 198.16Z" fill="#EB996E"/>
<path d="M238.83 175.16C238.359 174.569 237.743 174.109 237.043 173.825C236.342 173.541 235.58 173.443 234.83 173.54C234.291 173.589 233.768 173.746 233.292 174.002C232.816 174.258 232.397 174.608 232.06 175.03C231.735 175.438 231.543 175.936 231.511 176.457C231.479 176.978 231.607 177.496 231.88 177.94C232.271 178.38 232.786 178.691 233.357 178.833C233.927 178.976 234.528 178.944 235.08 178.74C236.231 178.331 237.289 177.695 238.19 176.87C238.467 176.677 238.704 176.433 238.89 176.15C238.981 176.016 239.03 175.858 239.03 175.695C239.03 175.533 238.981 175.375 238.89 175.24" fill="#EB996E"/>
<path d="M232.67 171C233.07 171 233.08 173.63 235.35 175.5C237.62 177.37 240.44 177.08 240.46 177.5C240.46 177.67 239.83 178.02 238.64 178.05C237.088 178.078 235.576 177.558 234.37 176.58C233.216 175.636 232.474 174.281 232.3 172.8C232.19 171.63 232.49 171 232.67 171Z" fill="#263238"/>
<path d="M232 146.92C231.76 147.59 229.32 147.28 226.46 147.63C223.6 147.98 221.28 148.77 220.9 148.17C220.73 147.89 221.13 147.26 222.06 146.62C223.302 145.822 224.709 145.317 226.175 145.144C227.641 144.971 229.127 145.133 230.52 145.62C231.61 146.09 232.14 146.61 232 146.92Z" fill="#263238"/>
<path d="M254 143.63C253.57 144.18 251.89 143.63 249.86 143.63C247.83 143.63 246.13 144.01 245.74 143.43C245.56 143.15 245.83 142.6 246.58 142.07C247.584 141.442 248.751 141.125 249.934 141.159C251.117 141.193 252.264 141.576 253.23 142.26C254 142.79 254.21 143.36 254 143.63Z" fill="#263238"/>
<path d="M194.391 187.31C196.829 187.803 199.349 187.71 201.744 187.037C204.139 186.364 206.34 185.131 208.164 183.44C209.989 181.749 211.385 179.649 212.238 177.312C213.092 174.975 213.377 172.469 213.071 170C212.521 165.65 210.181 161.24 211.691 157.12C213.691 151.69 221.301 150.02 223.321 144.59C224.491 141.44 223.441 137.75 224.771 134.66C226.021 131.76 229.081 130.09 232.061 129.01C235.041 127.93 238.221 127.19 240.721 125.25C243.221 123.31 244.771 119.65 243.161 116.92C229.953 118.505 216.982 121.657 204.521 126.31C201.631 127.39 198.601 128.69 196.891 131.25C195.091 133.97 195.181 137.47 195.331 140.73C196.071 156.61 193.651 171.48 194.391 187.36" fill="#263238"/>
<path d="M190.18 182.33C190.079 182.315 189.981 182.285 189.89 182.24C189.605 182.141 189.332 182.006 189.08 181.84C188.106 181.21 187.34 180.305 186.88 179.24C186.123 177.557 185.92 175.676 186.3 173.87C186.902 171.523 187.996 169.332 189.51 167.44C191.06 165.28 193.03 163.09 194.37 160.3C195.084 158.882 195.484 157.327 195.54 155.74C195.482 154.056 195.144 152.393 194.54 150.82C193.866 149.119 193.51 147.309 193.49 145.48C193.587 143.523 194.161 141.619 195.164 139.935C196.166 138.251 197.566 136.838 199.24 135.82C201.036 134.84 203.027 134.273 205.07 134.16C207.047 134.063 209.004 133.727 210.9 133.16C212.68 132.486 214.143 131.17 215 129.47C215.817 127.798 216.467 126.05 216.94 124.25C217.446 122.524 218.116 120.849 218.94 119.25C220.444 116.218 222.733 113.645 225.57 111.8C228.075 110.225 231.005 109.464 233.96 109.62C236.407 109.747 238.738 110.702 240.57 112.33C241.935 113.558 242.953 115.124 243.52 116.87C243.888 117.963 244.028 119.121 243.93 120.27C243.91 120.67 243.842 121.066 243.73 121.45C243.73 121.45 243.8 121.04 243.83 120.26C243.878 119.128 243.708 117.998 243.33 116.93C242.641 114.965 241.378 113.252 239.703 112.015C238.029 110.777 236.021 110.072 233.94 109.99C231.067 109.864 228.225 110.625 225.8 112.17C223.039 113.984 220.816 116.505 219.36 119.47C218.552 121.07 217.902 122.744 217.42 124.47C216.932 126.302 216.262 128.081 215.42 129.78C214.956 130.659 214.352 131.457 213.63 132.14C212.884 132.831 212.006 133.365 211.05 133.71C209.102 134.311 207.086 134.667 205.05 134.77C203.081 134.874 201.161 135.417 199.43 136.36C197.829 137.331 196.491 138.679 195.53 140.286C194.57 141.893 194.017 143.711 193.92 145.58C193.938 147.353 194.277 149.108 194.92 150.76C195.556 152.381 195.911 154.099 195.97 155.84C195.903 157.491 195.48 159.108 194.73 160.58C193.33 163.44 191.34 165.58 189.78 167.75C188.274 169.588 187.177 171.725 186.56 174.02C186.161 175.766 186.326 177.593 187.03 179.24C187.463 180.289 188.184 181.194 189.11 181.85C189.78 182.19 190.19 182.29 190.18 182.33Z" fill="#455A64"/>
<path d="M241.57 105.22C241.813 105.238 242.049 105.31 242.26 105.43C242.86 105.685 243.422 106.021 243.93 106.43C245.673 107.782 246.827 109.753 247.153 111.934C247.479 114.115 246.951 116.338 245.68 118.14C245.311 118.677 244.874 119.165 244.38 119.59C244.02 119.89 243.8 120.02 243.78 119.99C244.344 119.351 244.875 118.684 245.37 117.99C246.497 116.233 246.949 114.127 246.642 112.062C246.335 109.997 245.29 108.113 243.7 106.76C243.021 106.206 242.309 105.692 241.57 105.22V105.22Z" fill="#455A64"/>
<path d="M280.75 226.59C280.961 225.976 281.131 225.348 281.26 224.71C281.494 222.965 281.191 221.189 280.39 219.62C279.156 217.318 277.194 215.489 274.81 214.42C273.415 213.761 271.958 213.241 270.46 212.87C268.9 212.47 267.25 212.14 265.6 211.6C263.94 211.148 262.409 210.312 261.13 209.16C259.985 208.014 259.244 206.525 259.02 204.92C258.75 203.43 258.66 202.02 258.33 200.76C258.034 199.595 257.484 198.509 256.72 197.58C255.602 196.22 254.116 195.21 252.44 194.67C251.25 194.31 250.54 194.31 250.54 194.25C250.71 194.234 250.88 194.234 251.05 194.25C251.539 194.284 252.024 194.361 252.5 194.48C254.254 194.964 255.822 195.964 257 197.35C257.824 198.309 258.422 199.44 258.75 200.66C259.11 201.97 259.22 203.4 259.5 204.84C259.706 206.358 260.409 207.765 261.5 208.84C262.726 209.929 264.188 210.72 265.77 211.15C267.38 211.67 269.03 212.01 270.6 212.42C272.118 212.792 273.593 213.321 275 214C277.463 215.128 279.472 217.056 280.7 219.47C281.501 221.111 281.76 222.963 281.44 224.76C281.345 225.24 281.194 225.706 280.99 226.15C280.925 226.305 280.845 226.452 280.75 226.59Z" fill="#455A64"/>
<path d="M203.83 195.27C194.83 192.87 187.13 184.1 183.99 175.37C180.85 166.64 180.85 157.11 181.66 147.87C182.24 141.18 183.42 134.1 187.86 129.06C194.56 121.46 201.86 117.58 211.94 117.9" fill="#263238"/>
<path d="M256.13 214.77L247.78 212.67C248.69 212.044 249.354 211.121 249.657 210.059C249.96 208.997 249.883 207.862 249.44 206.85C248.911 205.553 248.037 204.427 246.912 203.592C245.787 202.758 244.454 202.249 243.06 202.12L205 197.82C204.334 197.732 203.658 197.869 203.08 198.209C202.502 198.55 202.054 199.075 201.81 199.7C200.123 203.994 200.066 207.527 201.64 210.3H201.46L194.12 211.76L181.68 321.5L263.16 317.69L256.13 214.77Z" fill="#F5F5F5"/>
<path d="M244.15 213.09C243.65 213.236 243.138 213.337 242.62 213.39C241.62 213.55 240.19 213.72 238.41 213.9C229.094 214.766 219.703 214.297 210.52 212.51C208.76 212.16 207.35 211.84 206.38 211.58C205.87 211.481 205.371 211.334 204.89 211.14C205.406 211.178 205.918 211.262 206.42 211.39C207.42 211.58 208.83 211.85 210.59 212.15C219.763 213.729 229.095 214.192 238.38 213.53C240.16 213.41 241.6 213.28 242.6 213.18C243.113 213.11 243.631 213.079 244.15 213.09V213.09Z" fill="#263238"/>
<path d="M207.32 230.53C208.122 228.866 209.076 227.279 210.17 225.79C211.125 224.207 212.227 222.718 213.46 221.34C212.657 223.006 211.7 224.593 210.6 226.08C209.65 227.664 208.552 229.154 207.32 230.53V230.53Z" fill="#E0E0E0"/>
<path d="M233.58 232.39C231.038 229.78 228.751 226.934 226.75 223.89C228.082 225.137 229.294 226.506 230.37 227.98C231.58 229.343 232.655 230.82 233.58 232.39V232.39Z" fill="#E0E0E0"/>
<path d="M221.38 246.34C220.806 244.561 220.394 242.734 220.15 240.88C219.734 239.057 219.496 237.199 219.44 235.33C220.017 237.109 220.429 238.936 220.67 240.79C221.075 242.615 221.313 244.472 221.38 246.34V246.34Z" fill="#E0E0E0"/>
<path d="M241.43 247.2C240.018 248.956 238.473 250.601 236.81 252.12C235.265 253.765 233.593 255.287 231.81 256.67C233.221 254.914 234.766 253.269 236.43 251.75C237.981 250.112 239.652 248.591 241.43 247.2V247.2Z" fill="#E0E0E0"/>
<path d="M214.54 265.9C210.855 263.699 207.854 260.517 205.87 256.71C206.01 256.62 207.54 259.02 209.95 261.55C212.36 264.08 214.64 265.77 214.54 265.9Z" fill="#E0E0E0"/>
<path d="M223.18 280.34C223.18 280.49 220.9 281.22 218.26 282.63C215.62 284.04 213.69 285.52 213.59 285.39C214.848 284.043 216.352 282.947 218.02 282.16C219.606 281.226 221.358 280.608 223.18 280.34V280.34Z" fill="#E0E0E0"/>
<path d="M237.23 281.27C236.634 280.766 236.1 280.191 235.64 279.56C234.72 278.46 233.49 276.89 232.21 275.1C230.93 273.31 229.85 271.64 229.1 270.4C228.654 269.759 228.284 269.068 228 268.34C228.532 268.911 229.004 269.534 229.41 270.2L232.64 274.8L235.93 279.34C236.43 279.936 236.866 280.583 237.23 281.27V281.27Z" fill="#E0E0E0"/>
<path d="M238.64 293.59C236.697 294.272 234.685 294.741 232.64 294.99C230.618 295.412 228.556 295.617 226.49 295.6C228.488 295.098 230.515 294.724 232.56 294.48C234.567 294.064 236.598 293.766 238.64 293.59Z" fill="#E0E0E0"/>
<path d="M215.89 211.54C215.82 211.54 216.3 210.94 216.71 209.88C217.217 208.493 217.369 207.001 217.15 205.54C216.901 204.068 216.468 202.634 215.86 201.27C215.565 200.712 215.337 200.121 215.18 199.51C215.597 199.99 215.935 200.533 216.18 201.12C216.907 202.475 217.404 203.942 217.65 205.46C217.892 207.011 217.68 208.598 217.04 210.03C216.816 210.637 216.416 211.163 215.89 211.54V211.54Z" fill="#E0E0E0"/>
<path d="M231.11 203.32C231.823 204.302 232.333 205.416 232.609 206.598C232.886 207.779 232.923 209.004 232.72 210.2C232.57 210.2 232.55 208.61 232.1 206.72C231.65 204.83 231 203.4 231.11 203.32Z" fill="#E0E0E0"/>
<path d="M299.76 281.51L337.66 214.94L342.23 203.39C342.23 203.39 354.05 177.99 354.87 175.39C355.82 172.39 357.49 172.15 358.57 172.57C360.25 173.24 360.79 175.74 360.05 178.33C359.79 179.22 355.2 193.18 355.2 193.18C356.435 192.116 357.745 191.144 359.12 190.27C362.03 188.27 367.36 188.37 372.3 190.13C377.24 191.89 378.46 192.82 377.87 194.76C377.74 195.124 377.529 195.454 377.254 195.726C376.979 195.998 376.646 196.204 376.28 196.33C375.117 196.816 373.814 196.845 372.63 196.41C364.69 193.71 361.17 197.29 361.17 197.29L360.58 198.8C360.58 198.8 366.58 196.89 369.94 199.59C370.442 199.986 370.863 200.475 371.18 201.03C372.268 201.385 373.243 202.018 374.011 202.866C374.779 203.714 375.312 204.748 375.557 205.865C375.803 206.983 375.752 208.145 375.411 209.236C375.069 210.328 374.449 211.312 373.61 212.09C373.246 212.506 372.764 212.801 372.228 212.936C371.693 213.072 371.129 213.042 370.61 212.85C370.125 212.52 369.736 212.068 369.48 211.54C369.317 211.276 369.134 211.025 368.93 210.79L366.67 214.79C366.67 214.79 361.1 223.49 359.1 227.56L333 297.09C332.142 299.379 330.837 301.474 329.16 303.253C327.483 305.031 325.469 306.458 323.234 307.45C321 308.441 318.591 308.978 316.147 309.027C313.703 309.077 311.273 308.64 309 307.74V307.74C306.548 306.772 304.332 305.288 302.502 303.389C300.673 301.49 299.273 299.22 298.396 296.733C297.52 294.246 297.189 291.6 297.424 288.973C297.659 286.347 298.456 283.802 299.76 281.51V281.51Z" fill="#FFBE9D"/>
<path d="M340.27 214.71C341.61 215.59 343.46 214.99 344.66 213.95C345.86 212.91 346.66 211.48 347.82 210.35C351.19 206.98 356.82 206.66 360.05 203.13C360.5 202.64 360.9 201.89 360.51 201.35C360.12 200.81 359.4 200.91 358.8 201.03L343.29 204.1" fill="#FFBE9D"/>
<path d="M343.29 204.1C343.813 203.864 344.364 203.696 344.93 203.6C346 203.33 347.56 202.98 349.48 202.6L356.24 201.17L358.24 200.76C359.01 200.478 359.86 200.507 360.61 200.84C360.824 200.999 360.986 201.218 361.075 201.469C361.164 201.72 361.176 201.992 361.11 202.25C361.007 202.674 360.801 203.066 360.51 203.39C359.987 203.969 359.4 204.486 358.76 204.93C356.18 206.72 353.35 207.45 351.09 208.64C350.012 209.15 349.02 209.825 348.15 210.64C347.35 211.41 346.72 212.29 346.06 213.04C345.585 213.702 344.971 214.252 344.261 214.651C343.551 215.05 342.762 215.289 341.95 215.35C340.76 215.35 340.27 214.76 340.31 214.75C340.831 214.929 341.379 215.014 341.93 215C342.667 214.878 343.372 214.605 343.998 214.197C344.625 213.789 345.16 213.256 345.57 212.63C346.21 211.756 346.895 210.915 347.62 210.11C348.526 209.212 349.569 208.463 350.71 207.89C353.04 206.63 355.86 205.89 358.24 204.19C358.813 203.783 359.343 203.317 359.82 202.8C360.26 202.31 360.41 201.72 360.1 201.55C359.79 201.38 359.1 201.46 358.41 201.6L356.41 201.97L349.61 203.22C347.67 203.56 346.1 203.82 345.01 203.98C344.446 204.11 343.866 204.151 343.29 204.1Z" fill="#EB996E"/>
<path d="M360.37 198.82C360.767 197.892 361.377 197.07 362.15 196.42C363.015 195.771 364.068 195.42 365.15 195.42C366.509 195.428 367.859 195.651 369.15 196.08C370.468 196.525 371.828 196.833 373.21 197C374.369 197.133 375.543 196.954 376.61 196.48C376.977 196.311 377.299 196.058 377.551 195.742C377.802 195.426 377.977 195.056 378.06 194.66C378.135 194.382 378.135 194.088 378.06 193.81C378 193.81 378 194.11 377.85 194.61C377.74 194.947 377.558 195.256 377.316 195.515C377.074 195.774 376.778 195.977 376.45 196.11C375.432 196.488 374.336 196.612 373.26 196.47C371.918 196.259 370.599 195.924 369.32 195.47C367.984 195.03 366.585 194.814 365.18 194.83C363.999 194.858 362.862 195.28 361.95 196.03C361.345 196.534 360.88 197.185 360.6 197.92C360.35 198.51 360.33 198.81 360.37 198.82Z" fill="#EB996E"/>
<path d="M360.32 177.33C359.927 178.225 359.613 179.151 359.38 180.1C358.79 182.02 358.09 184.3 357.31 186.82C356.53 189.34 355.76 191.6 355.14 193.51C354.778 194.416 354.5 195.353 354.31 196.31C354.807 195.468 355.215 194.576 355.53 193.65C356.19 191.97 357.03 189.65 357.87 187C358.71 184.35 359.36 182 359.78 180.21C360.06 179.272 360.241 178.306 360.32 177.33V177.33Z" fill="#EB996E"/>
<path d="M362.51 203C362.815 203.044 363.125 203.044 363.43 203C363.813 202.935 364.207 202.953 364.583 203.053C364.959 203.153 365.309 203.333 365.61 203.58C365.784 203.764 365.907 203.989 365.968 204.235C366.03 204.48 366.027 204.737 365.96 204.98C365.798 205.595 365.56 206.186 365.25 206.74C364.849 207.436 364.718 208.254 364.88 209.04C365.016 209.457 365.248 209.836 365.557 210.147C365.867 210.457 366.244 210.692 366.66 210.83C367.07 210.961 367.502 211.005 367.931 210.962C368.359 210.919 368.774 210.789 369.15 210.58C369.85 210.223 370.425 209.662 370.8 208.97C371.341 207.831 371.712 206.618 371.9 205.37C372.046 204.533 372.046 203.677 371.9 202.84C371.868 202.526 371.747 202.227 371.55 201.98C371.5 201.98 371.63 202.3 371.68 202.87C371.722 203.686 371.652 204.504 371.47 205.3C371.233 206.483 370.843 207.629 370.31 208.71C369.984 209.319 369.466 209.804 368.837 210.087C368.207 210.371 367.502 210.439 366.83 210.28C366.5 210.174 366.2 209.992 365.954 209.749C365.707 209.506 365.521 209.208 365.41 208.88C365.279 208.227 365.389 207.549 365.72 206.97C366.031 206.365 366.266 205.724 366.42 205.06C366.487 204.743 366.471 204.414 366.375 204.104C366.279 203.794 366.105 203.514 365.87 203.29C365.522 203.015 365.115 202.825 364.681 202.735C364.247 202.645 363.798 202.657 363.37 202.77C363.073 202.8 362.782 202.878 362.51 203V203Z" fill="#EB996E"/>
<path d="M369.05 210C369.05 210 368.86 210.26 368.88 210.82C368.909 211.213 369.028 211.594 369.23 211.932C369.431 212.271 369.709 212.558 370.04 212.77C370.553 213.065 371.134 213.22 371.725 213.22C372.317 213.22 372.898 213.065 373.41 212.77C374.644 212.059 375.554 210.898 375.95 209.53C376.386 208.191 376.386 206.749 375.95 205.41C375.596 204.328 374.957 203.361 374.1 202.61C373.536 202.105 372.881 201.712 372.17 201.45C371.918 201.329 371.641 201.267 371.36 201.27C372.252 201.702 373.079 202.253 373.82 202.91C374.659 203.729 375.252 204.766 375.531 205.904C375.811 207.042 375.765 208.236 375.4 209.35C375.043 210.579 374.241 211.63 373.15 212.3C372.714 212.556 372.221 212.697 371.716 212.711C371.21 212.725 370.71 212.611 370.26 212.38C369.962 212.206 369.705 211.971 369.505 211.69C369.305 211.409 369.167 211.089 369.1 210.75C369 210.31 369.1 210 369.05 210Z" fill="#EB996E"/>
<path d="M356.43 216.28C356.035 216.013 355.568 215.87 355.09 215.87C353.87 215.751 352.645 216.043 351.61 216.7L352.04 216.99C352.175 216.33 352.269 215.662 352.32 214.99C352.67 211.13 351.44 208.15 351.32 208.23C351.705 210.445 351.849 212.694 351.75 214.94C351.702 215.581 351.618 216.218 351.5 216.85L351.38 217.5L351.93 217.13C352.867 216.518 353.961 216.192 355.08 216.19C355.91 216.21 356.41 216.35 356.43 216.28Z" fill="#EB996E"/>
<path d="M364.32 192.56C364.16 192.56 364.38 193.76 365.44 194.68C366.5 195.6 367.69 195.68 367.69 195.51C367.69 195.34 366.74 195.05 365.83 194.24C364.92 193.43 364.48 192.5 364.32 192.56Z" fill="#EB996E"/>
<path d="M246 336.75L285.65 337.14L279 308.37L281.23 313.8C283.285 318.814 286.786 323.102 291.286 326.121C295.786 329.139 301.082 330.751 306.5 330.75C319.04 330.75 327.71 321.42 333.01 310.06C345.41 283.5 357.36 240.73 357.36 240.73L333.19 219.49C315.69 252.59 299.25 281.33 299.25 281.33C299.25 281.33 294.5 266.9 290.83 254.02C287.16 241.14 287.19 234.38 281.56 227.96C272.89 218.08 260.56 215.63 249.08 212.67L248.65 266.11L246 336.75Z" fill="#D0004F"/>
<path d="M200.63 297L272.83 311L276.34 338.74H165.64C162.61 338.777 159.605 338.182 156.818 336.993C154.031 335.804 151.522 334.047 149.451 331.834C147.381 329.62 145.795 327 144.795 324.139C143.794 321.279 143.401 318.241 143.64 315.22C145.23 295 146.96 270.1 148.28 259.57C149.28 251.36 152.58 242.87 156.45 235.57C162.04 225.05 180.67 211.57 197 210.87L200.09 279.64" fill="#D0004F"/>
<g opacity="0.4">
<path opacity="0.4" d="M246 336.75L285.65 337.14L279 308.37L281.23 313.8C283.285 318.814 286.786 323.102 291.286 326.121C295.786 329.139 301.082 330.751 306.5 330.75C319.04 330.75 327.71 321.42 333.01 310.06C345.41 283.5 357.36 240.73 357.36 240.73L333.19 219.49C315.69 252.59 299.25 281.33 299.25 281.33C299.25 281.33 294.5 266.9 290.83 254.02C287.16 241.14 287.19 234.38 281.56 227.96C272.89 218.08 260.56 215.63 249.08 212.67L248.65 266.11L246 336.75Z" fill="black"/>
<path opacity="0.4" d="M200.63 297L265.75 308.94C267.077 309.186 268.301 309.82 269.268 310.761C270.235 311.703 270.9 312.91 271.18 314.23L276.34 338.8H165.64C162.61 338.837 159.605 338.243 156.818 337.053C154.031 335.864 151.522 334.107 149.451 331.894C147.381 329.681 145.795 327.06 144.795 324.199C143.794 321.339 143.401 318.301 143.64 315.28C145.23 295.06 146.96 270.16 148.28 259.63C149.28 251.42 152.58 242.93 156.45 235.63C162.04 225.11 180.67 211.63 197 210.93L200.09 279.7" fill="black"/>
</g>
<path d="M186.88 294.94C186.854 294.721 186.854 294.499 186.88 294.28C186.88 293.79 186.88 293.16 186.88 292.39C186.88 290.68 186.88 288.32 186.88 285.39C186.88 279.52 186.77 271.39 186.32 262.46C186.09 257.98 185.8 253.72 185.49 249.86C185.345 246.434 184.859 243.03 184.04 239.7C183.468 237.477 182.378 235.421 180.86 233.7C180.272 233.099 179.651 232.532 179 232C179.763 232.393 180.456 232.91 181.05 233.53C182.669 235.239 183.834 237.325 184.44 239.6C185.313 242.957 185.836 246.395 186 249.86C186.34 253.73 186.64 257.99 186.87 262.47C187.33 271.47 187.38 279.56 187.28 285.47C187.22 288.41 187.14 290.79 187.07 292.47L186.96 294.36C186.956 294.556 186.929 294.75 186.88 294.94Z" fill="#263238"/>
<path d="M271.43 313C270.668 312.159 269.781 311.441 268.8 310.87C267.633 310.235 266.394 309.741 265.11 309.4C263.62 308.97 261.87 308.64 259.94 308.25C252.22 306.67 241.57 304.48 229.77 302.25C217.97 300.02 207.23 298.25 199.46 297.01L190.25 295.54L187.75 295.12C187.455 295.084 187.164 295.024 186.88 294.94C187.175 294.942 187.469 294.969 187.76 295.02L190.28 295.34C192.46 295.63 195.62 296.07 199.51 296.65C207.3 297.81 218.05 299.53 229.86 301.74C241.67 303.95 252.32 306.19 260.01 307.85C261.94 308.27 263.69 308.63 265.19 309.09C266.488 309.458 267.735 309.989 268.9 310.67C269.648 311.093 270.323 311.633 270.9 312.27C271.054 312.429 271.194 312.599 271.32 312.78C271.39 312.9 271.44 313 271.43 313Z" fill="#263238"/>
<path d="M187.1 294.94C187.1 295.03 185.77 295.34 183.71 296.18C182.507 296.677 181.338 297.252 180.21 297.9C178.845 298.714 177.545 299.63 176.32 300.64C175.128 301.673 174.018 302.797 173 304C172.162 304.993 171.393 306.042 170.7 307.14C169.52 309.03 168.98 310.31 168.89 310.27C168.952 309.948 169.056 309.636 169.2 309.34C169.54 308.519 169.935 307.72 170.38 306.95C171.047 305.809 171.799 304.719 172.63 303.69C174.682 301.172 177.193 299.065 180.03 297.48C181.179 296.832 182.379 296.28 183.62 295.83C184.454 295.519 185.309 295.269 186.18 295.08C186.478 294.991 186.788 294.944 187.1 294.94V294.94Z" fill="#263238"/>
<path d="M280.33 312.22C280.261 311.995 280.211 311.764 280.18 311.53C280.1 311.03 279.99 310.37 279.86 309.53C279.58 307.8 279.21 305.3 278.79 302.2C277.95 296.01 276.93 287.43 276.07 277.93C275.21 268.43 274.7 259.81 274.42 253.56C274.28 250.44 274.2 247.91 274.16 246.16C274.16 245.327 274.16 244.66 274.16 244.16C274.138 243.928 274.138 243.693 274.16 243.46C274.214 243.69 274.241 243.925 274.24 244.16L274.37 246.16C274.48 247.96 274.62 250.47 274.8 253.54C275.17 259.78 275.75 268.39 276.6 277.88C277.45 287.37 278.42 295.95 279.17 302.15C279.54 305.21 279.85 307.7 280.07 309.5C280.16 310.33 280.24 310.99 280.3 311.5C280.34 311.738 280.35 311.98 280.33 312.22V312.22Z" fill="#263238"/>
<path d="M304.27 301.47C304.27 301.47 304.04 301.25 303.69 300.81C303.206 300.172 302.762 299.504 302.36 298.81C299.677 294.23 298.44 288.946 298.81 283.65C298.861 282.854 298.968 282.062 299.13 281.28C299.166 280.988 299.24 280.703 299.35 280.43C299.44 280.43 299.25 281.67 299.18 283.67C299.013 288.89 300.22 294.063 302.68 298.67C303.62 300.4 304.35 301.41 304.27 301.47Z" fill="#263238"/>
<path d="M186.59 257.78C186.59 257.78 186.46 257.83 186.22 257.86C185.859 257.918 185.495 257.955 185.13 257.97C183.788 258.027 182.445 257.919 181.13 257.65C179.176 257.258 177.269 256.661 175.44 255.87C173.37 255.01 171.17 253.87 168.87 252.76C166.717 251.679 164.487 250.756 162.2 250C160.343 249.377 158.414 248.997 156.46 248.87C154.65 248.811 152.841 249.017 151.09 249.48C151.197 249.409 151.315 249.355 151.44 249.32C151.764 249.179 152.098 249.062 152.44 248.97C153.743 248.621 155.091 248.466 156.44 248.51C158.436 248.573 160.415 248.909 162.32 249.51C164.637 250.256 166.891 251.185 169.06 252.29C171.37 253.43 173.55 254.55 175.59 255.42C177.386 256.218 179.254 256.841 181.17 257.28C182.953 257.645 184.77 257.812 186.59 257.78V257.78Z" fill="#FAFAFA"/>
<path d="M199 255.35C197.079 255.935 195.112 256.356 193.12 256.61C191.147 257.04 189.139 257.291 187.12 257.36C189.041 256.775 191.008 256.354 193 256.1C194.973 255.67 196.982 255.419 199 255.35V255.35Z" fill="#FAFAFA"/>
<path d="M186.14 276.81C185.679 277.07 185.193 277.281 184.69 277.44C183.74 277.81 182.35 278.31 180.62 278.87C176.096 280.322 171.478 281.464 166.8 282.29C164.06 282.77 161.43 283.12 159.03 283.36C156.901 283.635 154.75 283.692 152.61 283.53C151.158 283.413 149.744 283.008 148.45 282.34C148.098 282.157 147.763 281.943 147.45 281.7C147.334 281.621 147.23 281.527 147.14 281.42C147.14 281.42 147.62 281.73 148.53 282.16C149.826 282.745 151.22 283.084 152.64 283.16C154.754 283.27 156.873 283.176 158.97 282.88C161.36 282.61 163.97 282.25 166.7 281.77C171.357 280.944 175.964 279.859 180.5 278.52C182.24 278 183.64 277.52 184.61 277.25C185.108 277.066 185.619 276.919 186.14 276.81Z" fill="#FAFAFA"/>
<path d="M198.671 282.08C196.869 282.366 195.044 282.483 193.221 282.43C191.403 282.545 189.578 282.488 187.771 282.26C189.572 281.974 191.397 281.857 193.221 281.91C195.038 281.795 196.863 281.852 198.671 282.08V282.08Z" fill="#FAFAFA"/>
<path d="M147.21 327.64C147.222 327.456 147.259 327.274 147.32 327.1C147.42 326.7 147.56 326.21 147.72 325.6L148.02 324.52C148.15 324.13 148.32 323.72 148.48 323.27C148.84 322.249 149.253 321.248 149.72 320.27L150.53 318.56C150.82 317.96 151.19 317.38 151.53 316.76C152.284 315.449 153.105 314.177 153.99 312.95C158.075 307.302 163.402 302.667 169.56 299.4C170.899 298.693 172.274 298.055 173.68 297.49C174.35 297.24 174.97 296.95 175.6 296.75L177.41 296.18C178.447 295.85 179.502 295.58 180.57 295.37C181.04 295.27 181.47 295.16 181.87 295.09L182.99 294.94L184.53 294.75C184.709 294.724 184.891 294.724 185.07 294.75C184.899 294.816 184.721 294.859 184.54 294.88L183.02 295.17L181.92 295.36L180.63 295.68C179.71 295.93 178.63 296.14 177.52 296.56L175.74 297.16C175.12 297.37 174.5 297.66 173.85 297.92C172.465 298.495 171.11 299.139 169.79 299.85C166.783 301.514 163.952 303.477 161.34 305.71C158.76 307.987 156.415 310.516 154.34 313.26C153.44 314.56 152.55 315.78 151.87 317.01C151.52 317.62 151.15 318.19 150.87 318.78L150.03 320.46C149.46 321.52 149.11 322.54 148.73 323.46C148.56 323.9 148.38 324.31 148.24 324.69L147.89 325.75L147.4 327.22C147.352 327.367 147.288 327.508 147.21 327.64Z" fill="#FAFAFA"/>
<path d="M197.36 296.92C195.687 298.373 194.297 300.123 193.26 302.08C192.169 304.221 191.395 306.508 190.96 308.87C190.443 311.777 190.109 314.712 189.96 317.66C189.835 320.63 189.501 323.588 188.96 326.51C188.47 328.906 187.624 331.215 186.45 333.36C185.666 334.798 184.653 336.099 183.45 337.21C183.122 337.514 182.771 337.792 182.4 338.04C182.15 338.21 182.01 338.3 182 338.28C183.703 336.86 185.121 335.129 186.18 333.18C187.288 331.052 188.083 328.776 188.54 326.42C189.072 323.516 189.406 320.58 189.54 317.63C189.67 314.658 190.004 311.697 190.54 308.77C191.006 306.375 191.828 304.062 192.98 301.91C193.766 300.459 194.779 299.142 195.98 298.01C196.295 297.709 196.629 297.428 196.98 297.17C197.096 297.071 197.223 296.987 197.36 296.92Z" fill="#FAFAFA"/>
<path d="M214.43 338.91C214.29 338.91 214.43 330.29 214.8 319.67C215.17 309.05 215.55 300.44 215.69 300.44C215.83 300.44 215.69 309.06 215.32 319.69C214.95 330.32 214.57 338.92 214.43 338.91Z" fill="#FAFAFA"/>
<path d="M241.57 337.43C241.382 337.029 241.234 336.61 241.13 336.18C240.968 335.687 240.831 335.187 240.72 334.68C240.59 334.09 240.41 333.42 240.3 332.68C239.989 330.916 239.812 329.131 239.77 327.34C239.672 322.939 240.349 318.556 241.77 314.39C242.349 312.693 243.055 311.042 243.88 309.45C244.21 308.76 244.58 308.18 244.88 307.66C245.134 307.207 245.415 306.77 245.72 306.35C245.943 305.968 246.208 305.613 246.51 305.29C246.6 305.34 245.51 306.89 244.2 309.62C243.423 311.213 242.755 312.857 242.2 314.54C240.83 318.663 240.154 322.985 240.2 327.33C240.223 329.1 240.36 330.867 240.61 332.62C241.11 335.6 241.67 337.4 241.57 337.43Z" fill="#FAFAFA"/>
<path d="M195.48 226.91C195.48 226.99 193.9 226.3 191.3 225.46C184.528 223.274 177.351 222.638 170.3 223.6C167.6 223.97 165.95 224.39 165.93 224.3C166.288 224.127 166.668 224.003 167.06 223.93C168.106 223.641 169.168 223.41 170.24 223.24C177.344 222.06 184.632 222.703 191.42 225.11C192.44 225.47 193.441 225.88 194.42 226.34C194.795 226.486 195.151 226.677 195.48 226.91V226.91Z" fill="#FAFAFA"/>
<path d="M274.48 269C273.243 269.064 272.004 269.044 270.77 268.94C268.48 268.85 265.32 268.73 261.83 268.65C258.34 268.57 255.18 268.52 252.89 268.5C251.652 268.539 250.412 268.496 249.18 268.37C249.507 268.293 249.843 268.252 250.18 268.25C250.82 268.25 251.75 268.16 252.9 268.13C255.19 268.06 258.35 268.04 261.85 268.13C265.35 268.22 268.51 268.4 270.85 268.59C271.99 268.68 272.91 268.76 273.55 268.84C273.865 268.86 274.176 268.914 274.48 269V269Z" fill="#FAFAFA"/>
<path d="M294.22 265.21C294.22 265.3 292.97 265.73 291.02 266.69C285.919 269.2 281.598 273.051 278.52 277.83C277.34 279.66 276.77 280.88 276.69 280.83C276.746 280.515 276.854 280.21 277.01 279.93C277.361 279.136 277.762 278.364 278.21 277.62C279.677 275.148 281.519 272.918 283.67 271.01C285.816 269.097 288.24 267.523 290.86 266.34C291.651 265.985 292.462 265.677 293.29 265.42C293.59 265.31 293.903 265.24 294.22 265.21Z" fill="#FAFAFA"/>
<path d="M284.48 233.16C282.758 233.101 281.039 233.341 279.4 233.87C277.63 234.488 275.914 235.251 274.27 236.15C272.24 237.275 270.119 238.229 267.93 239C263.883 240.297 259.58 240.575 255.4 239.81C254.144 239.582 252.909 239.248 251.71 238.81C251.261 238.67 250.829 238.482 250.42 238.25C250.42 238.15 252.3 238.94 255.42 239.45C259.541 240.094 263.756 239.768 267.73 238.5C269.894 237.734 271.997 236.805 274.02 235.72C275.694 234.832 277.444 234.095 279.25 233.52C280.478 233.13 281.762 232.944 283.05 232.97C283.385 232.98 283.719 233.013 284.05 233.07C284.36 233.11 284.49 233.14 284.48 233.16Z" fill="#FAFAFA"/>
<path d="M279.49 300.18C279.128 300.41 278.738 300.595 278.33 300.73C277.95 300.89 277.48 301.08 276.92 301.26C276.36 301.44 275.73 301.68 275.02 301.86C273.346 302.327 271.642 302.681 269.92 302.92C267.812 303.193 265.686 303.304 263.56 303.25C261.436 303.171 259.32 302.934 257.23 302.54C255.535 302.197 253.864 301.74 252.23 301.17C251.52 300.95 250.91 300.68 250.37 300.46C249.83 300.24 249.37 300.03 248.99 299.85C248.593 299.685 248.214 299.477 247.86 299.23C247.86 299.14 249.55 299.94 252.35 300.82C253.99 301.336 255.66 301.75 257.35 302.06C261.486 302.826 265.715 302.954 269.89 302.44C271.595 302.23 273.284 301.917 274.95 301.5C277.77 300.78 279.46 300.09 279.49 300.18Z" fill="#FAFAFA"/>
<path d="M302.47 329.78C302.327 329.69 302.196 329.582 302.08 329.46C301.85 329.23 301.47 328.92 301.08 328.46C299.872 327.169 298.813 325.746 297.92 324.22C295.034 319.107 293.499 313.342 293.46 307.47C293.467 301.64 294.23 295.834 295.73 290.2C296.27 288.04 296.73 286.3 297.1 285.11C297.27 284.56 297.41 284.11 297.52 283.74C297.63 283.37 297.68 283.26 297.7 283.27C297.698 283.437 297.671 283.602 297.62 283.76C297.54 284.14 297.43 284.6 297.3 285.16C297 286.45 296.59 288.16 296.09 290.29C294.71 295.906 294.008 301.667 294 307.45C294.032 313.228 295.477 318.91 298.21 324C299.067 325.525 300.072 326.962 301.21 328.29C302 329.25 302.5 329.74 302.47 329.78Z" fill="#FAFAFA"/>
<path d="M338.86 295.82C337.263 294.553 335.478 293.541 333.571 292.82C331.484 292.099 329.344 291.54 327.171 291.15C324.471 290.695 321.8 290.084 319.171 289.32C314.423 287.777 310.09 285.171 306.5 281.7C305.418 280.654 304.415 279.527 303.5 278.33C303.17 277.91 302.951 277.56 302.791 277.33C302.631 277.1 302.56 276.97 302.58 276.96C302.967 277.35 303.328 277.764 303.66 278.2C304.62 279.342 305.652 280.421 306.75 281.43C310.355 284.776 314.644 287.297 319.321 288.82C321.923 289.58 324.563 290.2 327.231 290.68C329.422 291.101 331.576 291.7 333.671 292.47C335.085 293.005 336.413 293.747 337.61 294.67C337.938 294.916 338.245 295.187 338.53 295.48C338.78 295.7 338.88 295.81 338.86 295.82Z" fill="#FAFAFA"/>
<path d="M350.3 262.45C349.914 262.175 349.556 261.863 349.23 261.52C348.9 261.21 348.5 260.83 348 260.41C347.5 259.99 347 259.49 346.32 259.01C344.842 257.818 343.293 256.72 341.68 255.72C337.723 253.273 333.422 251.432 328.92 250.26C327.079 249.786 325.213 249.423 323.33 249.17C322.53 249.04 321.8 248.99 321.16 248.93C320.52 248.87 319.96 248.82 319.51 248.8C319.037 248.798 318.565 248.754 318.1 248.67C318.566 248.598 319.038 248.574 319.51 248.6C320.066 248.572 320.623 248.572 321.18 248.6C321.82 248.6 322.57 248.65 323.38 248.76C325.283 248.968 327.17 249.302 329.03 249.76C331.308 250.344 333.54 251.093 335.71 252C337.861 252.938 339.94 254.034 341.93 255.28C343.547 256.312 345.094 257.451 346.56 258.69C347.2 259.2 347.72 259.69 348.2 260.17C348.61 260.543 349 260.937 349.37 261.35C349.718 261.682 350.03 262.051 350.3 262.45V262.45Z" fill="#FAFAFA"/>
<path d="M262.8 216.55C262.213 216.942 261.573 217.248 260.9 217.46C259.323 218.079 257.702 218.58 256.05 218.96C254.405 219.348 252.734 219.615 251.05 219.76C250.354 219.866 249.646 219.866 248.95 219.76C248.95 219.6 252.12 219.34 255.95 218.43C259.78 217.52 262.74 216.4 262.8 216.55Z" fill="#FAFAFA"/>
<path d="M298.27 357.39C298.4 357.836 298.416 358.308 298.317 358.762C298.218 359.216 298.006 359.637 297.702 359.989C297.398 360.34 297.01 360.609 296.575 360.772C296.139 360.934 295.67 360.985 295.21 360.92V360.92C294.677 360.844 294.177 360.615 293.772 360.26C293.367 359.905 293.075 359.439 292.93 358.92L292.08 355.78H292.21C292.297 356.233 292.275 356.701 292.145 357.144C292.015 357.587 291.782 357.993 291.464 358.328C291.147 358.663 290.754 358.918 290.319 359.071C289.883 359.225 289.418 359.272 288.96 359.21V359.21C287.65 359.21 286.52 357.3 286.14 356.29C285.151 356.386 284.155 356.209 283.26 355.779C282.364 355.349 281.604 354.682 281.06 353.85L275.19 344.69L264.32 336.74L270.9 313.25L294.29 328.39C295.21 329.11 295.35 329.39 296.81 330.76L311.91 344.65C310.2 345.65 308.75 345.6 306.37 344.65C303.99 343.7 293.57 336.65 293.57 336.65L298.27 357.3" fill="#FFBE9D"/>
<path d="M278.26 338.07C278.26 338.07 278.53 338.19 278.95 338.48L279.73 339.02C280.101 339.253 280.437 339.535 280.73 339.86C281.076 340.258 281.348 340.716 281.53 341.21C281.71 341.74 281.9 342.28 282.1 342.85L283.38 346.61C284.27 349.29 285.05 351.71 285.59 353.48C285.932 354.419 286.189 355.386 286.36 356.37C285.906 355.478 285.531 354.548 285.24 353.59C284.61 351.85 283.77 349.45 282.88 346.78C282.45 345.45 282.03 344.18 281.64 343.01C281.46 342.43 281.29 341.88 281.12 341.36C280.97 340.902 280.744 340.473 280.45 340.09C280.197 339.778 279.908 339.496 279.59 339.25L278.87 338.64C278.44 338.3 278.24 338.1 278.26 338.07Z" fill="#EB996E"/>
<path d="M292.33 356.32C292.181 356.001 292.07 355.665 292 355.32L291.25 352.64C290.61 350.38 289.76 347.25 288.67 343.84C287.58 340.43 286.44 337.39 285.07 335.51C284.559 334.759 283.911 334.111 283.16 333.6C282.61 333.26 282.26 333.16 282.27 333.1C282.362 333.098 282.454 333.115 282.54 333.15C282.789 333.214 283.03 333.305 283.26 333.42C284.09 333.884 284.81 334.522 285.37 335.29C286.86 337.19 288.06 340.29 289.16 343.68C290.26 347.07 291.06 350.26 291.6 352.55C291.87 353.69 292.07 354.62 292.2 355.27C292.296 355.612 292.34 355.966 292.33 356.32V356.32Z" fill="#EB996E"/>
<path d="M298.37 357.74C298.19 357.409 298.052 357.056 297.96 356.69C297.71 355.89 297.4 354.92 297.03 353.77C296.27 351.3 295.26 347.88 294.17 344.1C293.08 340.32 292.17 337 291.42 334.4C291.162 333.437 290.601 332.581 289.82 331.96C289.504 331.756 289.169 331.582 288.82 331.44C288.919 331.416 289.022 331.416 289.12 331.44C289.401 331.503 289.668 331.615 289.91 331.77C290.784 332.37 291.428 333.248 291.74 334.26C292.56 336.73 293.53 340.15 294.64 343.93C295.75 347.71 296.69 351.16 297.36 353.65C297.66 354.81 297.92 355.8 298.12 356.65C298.241 357.004 298.325 357.369 298.37 357.74V357.74Z" fill="#EB996E"/>
<path d="M440.47 140.89C440.47 141.582 440.675 142.259 441.06 142.834C441.444 143.41 441.991 143.858 442.63 144.123C443.27 144.388 443.974 144.457 444.653 144.322C445.331 144.187 445.955 143.854 446.445 143.365C446.934 142.875 447.267 142.251 447.402 141.572C447.538 140.894 447.468 140.19 447.203 139.55C446.938 138.911 446.49 138.364 445.914 137.98C445.339 137.595 444.662 137.39 443.97 137.39C443.041 137.39 442.151 137.758 441.495 138.415C440.838 139.071 440.47 139.961 440.47 140.89V140.89Z" fill="#455A64"/>
<path d="M429.96 144.39C431.893 144.39 433.46 142.823 433.46 140.89C433.46 138.957 431.893 137.39 429.96 137.39C428.027 137.39 426.46 138.957 426.46 140.89C426.46 142.823 428.027 144.39 429.96 144.39Z" fill="#455A64"/>
<path d="M412.489 139.14C412.143 139.739 411.982 140.428 412.027 141.119C412.072 141.809 412.321 142.471 412.742 143.021C413.163 143.57 413.738 143.982 414.394 144.205C415.049 144.428 415.756 144.451 416.425 144.272C417.094 144.093 417.694 143.719 418.151 143.199C418.607 142.678 418.899 142.034 418.99 141.348C419.08 140.661 418.965 139.964 418.659 139.343C418.352 138.722 417.869 138.206 417.269 137.86C416.872 137.629 416.432 137.478 415.976 137.418C415.521 137.357 415.057 137.387 414.613 137.506C414.169 137.625 413.753 137.83 413.388 138.111C413.024 138.391 412.718 138.741 412.489 139.14V139.14Z" fill="#455A64"/>
<path d="M429.74 99.9998C429.507 99.9822 429.273 99.9822 429.04 99.9998L426.96 100.06C426.5 100.06 425.96 100.06 425.42 100.13L423.59 100.39L421.45 100.7L419.05 101.29C414.939 102.31 411.023 104 407.46 106.29C402.189 109.646 397.756 114.162 394.497 119.493C391.239 124.824 389.242 130.829 388.66 137.05C388.502 138.915 388.466 140.789 388.55 142.66C388.62 143.6 388.6 144.57 388.74 145.52C388.88 146.47 389.03 147.44 389.17 148.41C389.902 152.384 391.216 156.229 393.07 159.82C395.043 163.582 397.553 167.038 400.52 170.08C403.681 173.188 407.304 175.789 411.26 177.79C415.353 179.884 419.785 181.239 424.35 181.79C425.505 181.962 426.671 182.059 427.84 182.08C429.014 182.168 430.193 182.192 431.37 182.15C433.744 182.052 436.105 181.754 438.43 181.26C443.447 180.173 448.218 178.162 452.5 175.33L452.08 175.38L466.41 181.13L467.26 181.47L467.02 180.59L462.8 165.27L462.73 165.64C466.619 160.489 469.24 154.493 470.38 148.14C470.928 145.173 471.116 142.151 470.94 139.14C470.906 137.695 470.769 136.255 470.53 134.83C470.423 134.123 470.313 133.423 470.2 132.73C470.08 132.04 469.87 131.37 469.7 130.73C467.299 121.308 461.628 113.047 453.7 107.42C450.774 105.325 447.574 103.643 444.19 102.42L442.04 101.65L440.04 101.13L438.18 100.67C437.58 100.56 437 100.5 436.46 100.41C435.38 100.28 434.46 100.09 433.59 100.05L431.49 99.9798H430.2C430.053 99.969 429.906 99.969 429.76 99.9798C429.902 100.025 430.051 100.045 430.2 100.04L431.48 100.15L433.57 100.29C434.4 100.35 435.34 100.56 436.42 100.72C444.199 102.071 451.418 105.652 457.201 111.027C462.985 116.402 467.083 123.34 469 131C469.15 131.66 469.36 132.32 469.48 133C469.6 133.68 469.68 134.36 469.79 135.06C470.018 136.459 470.145 137.872 470.17 139.29C470.327 142.232 470.132 145.183 469.59 148.08C468.429 154.294 465.829 160.15 462 165.18L461.87 165.35L461.93 165.56C463.263 170.506 464.656 175.616 466.11 180.89L466.72 180.35L452.39 174.58L452.17 174.49L451.96 174.62C445.814 178.692 438.667 180.996 431.3 181.28C430.149 181.32 428.998 181.3 427.85 181.22C426.708 181.199 425.569 181.102 424.44 180.93C419.976 180.39 415.643 179.066 411.64 177.02C407.769 175.061 404.221 172.522 401.12 169.49C398.211 166.526 395.745 163.158 393.8 159.49C391.994 155.965 390.714 152.195 390 148.3C389.85 147.3 389.7 146.41 389.56 145.47C389.42 144.53 389.44 143.59 389.37 142.66C389.276 140.827 389.303 138.989 389.45 137.16C389.994 131.037 391.926 125.118 395.099 119.852C398.271 114.587 402.601 110.113 407.76 106.77C411.262 104.453 415.114 102.718 419.17 101.63L421.53 101L423.65 100.65L425.47 100.35C426.03 100.29 426.54 100.27 426.99 100.24L429.06 100.09C429.289 100.084 429.517 100.054 429.74 99.9998V99.9998Z" fill="#455A64"/>
</svg>
